<svg id="Layer_1" data-name="Layer 1" xmlns="http://www.w3.org/2000/svg" viewBox="0 0 404 450.28">
  <g id="Background_Complete" data-name="Background Complete">
    <path d="M344.27,243.92l-72.73-27.5a9.72,9.72,0,0,1-5.65-12.53h0L304,103.22a9.72,9.72,0,0,1,12.54-5.66L362.62,115l21.78,50.3-27.59,73A9.74,9.74,0,0,1,344.27,243.92Z" transform="translate(-0.02)" fill="#f5f5f5"/>
    <path d="M362.62,115,351.9,143.33A9,9,0,0,0,357.16,155h0l27.24,10.3Z" transform="translate(-0.02)" fill="#ebebeb"/>
    <path d="M351.33,146s-2.95,6.74,4,12a7.24,7.24,0,0,0,.82.54c3.32,2,25.16,15,25.36,14.47l2.88-7.62-27.24-10.3S350.45,152.2,351.33,146Z" transform="translate(-0.02)" fill="#e0e0e0"/>
    <path d="M346.24,139.87c-.14.37-7.78-2.19-17.07-5.7s-16.71-6.66-16.57-7,7.78,2.19,17.07,5.7S346.38,139.48,346.24,139.87Z" transform="translate(-0.02)" fill="#e0e0e0"/>
    <path d="M361.91,164.11c-.14.36-12.64-4-27.93-9.81s-27.58-10.77-27.44-11.14,12.64,4,27.94,9.82S362,163.74,361.91,164.11Z" transform="translate(-0.02)" fill="#e0e0e0"/>
    <path d="M361.84,179.37c-.14.36-13.76-4.45-30.43-10.76s-30.07-11.71-29.93-12.07,13.76,4.45,30.43,10.76S362,179,361.84,179.37Z" transform="translate(-0.02)" fill="#e0e0e0"/>
    <path d="M357.07,192c-.14.36-13.76-4.45-30.43-10.76s-30.07-11.75-29.93-12.07,13.76,4.45,30.43,10.75S357.21,191.62,357.07,192Z" transform="translate(-0.02)" fill="#e0e0e0"/>
    <path d="M352.3,204.61c-.14.36-13.77-4.45-30.43-10.76s-30.07-11.71-29.94-12.07,13.76,4.45,30.44,10.75S352.43,204.24,352.3,204.61Z" transform="translate(-0.02)" fill="#e0e0e0"/>
    <path d="M347.52,217.23c-.13.36-13.76-4.46-30.42-10.76S287,194.76,287.16,194.4s13.76,4.45,30.43,10.75S347.66,216.86,347.52,217.23Z" transform="translate(-0.02)" fill="#e0e0e0"/>
    <rect x="22.85" y="151.76" width="114.31" height="158.27" rx="6.36" transform="translate(-71.84 39.42) rotate(-19.3)" fill="#ebebeb"/>
    <rect x="31.35" y="160.15" width="98.27" height="144.26" transform="translate(-72.27 39.65) rotate(-19.3)" fill="#e0e0e0"/>
    <rect x="29.23" y="159.58" width="98.27" height="141.51" transform="translate(-71.74 38.85) rotate(-19.3)" fill="#fafafa"/>
    <path d="M148.11,280.87,101.22,147.36l.17.08L8.66,179.93h0l.09-.18c17.48,50.16,33.75,96.49,46.74,133.56l-.15-.07,92.78-32.37L55.41,313.48H55.3v-.11C42.3,276.3,26.08,230,8.5,179.82v-.14h.13l92.74-32.46h.13v.12Z" transform="translate(-0.02)" fill="#e0e0e0"/>
    <path d="M115.22,292.39s20.65-17.42,24.23-35.56a26.26,26.26,0,0,1-17.66,10.65S121.38,286.48,115.22,292.39Z" transform="translate(-0.02)" fill="#e0e0e0"/>
    <rect x="33.84" y="210.07" width="12.01" height="12.01" rx="3.42" transform="matrix(0.94, -0.33, 0.33, 0.94, -69.2, 25.31)" fill="#ebebeb"/>
    <path d="M39.71,218h0a.22.22,0,0,1-.22,0l-2.24-1.3a.27.27,0,0,1,0-.39.28.28,0,0,1,.33-.09l2,1.14,2.36-5a.3.3,0,0,1,.38-.14.27.27,0,0,1,.13.37h0l-2.49,5.32A.28.28,0,0,1,39.71,218Z" transform="translate(-0.02)" fill="#fff"/>
    <path d="M103.75,188.88c0,.08-12,4.37-26.89,9.58s-27,9.37-27,9.3,12-4.37,26.9-9.58S103.73,188.81,103.75,188.88Z" transform="translate(-0.02)" fill="#e0e0e0"/>
    <path d="M75.47,208.1s-.31.14-.87.36l-2.42.9c-2,.74-4.88,1.75-8,2.85s-6,2.08-8,2.77l-2.45.81a5.88,5.88,0,0,1-.91.26,5.54,5.54,0,0,1,.87-.37l2.42-.89c2-.75,4.88-1.76,8-2.86s6-2.07,8-2.77l2.45-.81A5.85,5.85,0,0,1,75.47,208.1Z" transform="translate(-0.02)" fill="#e0e0e0"/>
    <path d="M105,192.56c0,.07-12,4.36-26.9,9.57s-27,9.38-27,9.3,12-4.36,26.91-9.57S105,192.48,105,192.56Z" transform="translate(-0.02)" fill="#e0e0e0"/>
    <rect x="40.81" y="229.97" width="12.01" height="12.01" rx="3.42" transform="translate(-75.38 28.73) rotate(-19.3)" fill="#ebebeb"/>
    <path d="M46.68,237.86h0a.24.24,0,0,1-.23,0l-2.23-1.3a.28.28,0,0,1-.11-.37h0a.28.28,0,0,1,.37-.11h0l2,1.14,2.36-5.05a.29.29,0,0,1,.37-.14.28.28,0,0,1,.14.37l-2.49,5.33A.28.28,0,0,1,46.68,237.86Z" transform="translate(-0.02)" fill="#fff"/>
    <path d="M110.72,208.78c0,.08-12,4.36-26.9,9.58s-27,9.37-27,9.3,12-4.37,26.9-9.58S110.7,208.71,110.72,208.78Z" transform="translate(-0.02)" fill="#e0e0e0"/>
    <path d="M82.44,228s-.31.14-.88.36l-2.41.9c-2,.74-4.88,1.75-8,2.85s-6,2.08-8,2.77l-2.45.81a5.88,5.88,0,0,1-.91.26,5.54,5.54,0,0,1,.87-.37l2.42-.89c2-.75,4.88-1.76,8-2.86s6-2.07,8-2.77l2.45-.81A5.85,5.85,0,0,1,82.44,228Z" transform="translate(-0.02)" fill="#e0e0e0"/>
    <path d="M112,212.48c0,.07-12,4.36-26.9,9.57s-27,9.38-27,9.3,12-4.36,26.9-9.57S112,212.38,112,212.48Z" transform="translate(-0.02)" fill="#e0e0e0"/>
    <rect x="47.79" y="249.87" width="12.01" height="12.01" rx="3.42" transform="translate(-81.57 32.16) rotate(-19.3)" fill="#ebebeb"/>
    <path d="M53.65,257.76h0a.24.24,0,0,1-.23,0l-2.24-1.28a.29.29,0,0,1-.15-.37.27.27,0,0,1,.37-.14l.06,0,2,1.14,2.36-5a.29.29,0,0,1,.36-.16.28.28,0,0,1,.16.37v0l-2.49,5.33A.31.31,0,0,1,53.65,257.76Z" transform="translate(-0.02)" fill="#fff"/>
    <path d="M117.69,228.68c0,.08-12,4.36-26.9,9.58s-27,9.37-27,9.29,12-4.36,26.91-9.57S117.66,228.61,117.69,228.68Z" transform="translate(-0.02)" fill="#e0e0e0"/>
    <path d="M89.41,247.89a6.82,6.82,0,0,1-.88.37l-2.42.9c-2,.74-4.87,1.75-8,2.85s-6,2.07-8,2.77l-2.45.81a7.25,7.25,0,0,1-.91.26,5.54,5.54,0,0,1,.87-.37l2.42-.9c2-.74,4.88-1.75,8-2.85s6-2.07,8-2.77l2.44-.81C88.78,248.05,89.1,248,89.41,247.89Z" transform="translate(-0.02)" fill="#e0e0e0"/>
    <path d="M119,232.36c0,.07-12,4.36-26.9,9.57s-27,9.38-27,9.3,12-4.36,26.9-9.58S119,232.28,119,232.36Z" transform="translate(-0.02)" fill="#e0e0e0"/>
    <rect x="54.75" y="269.78" width="12.01" height="12.01" rx="3.42" transform="translate(-87.75 35.58) rotate(-19.3)" fill="#ebebeb"/>
    <path d="M60.61,277.66h0a.28.28,0,0,1-.22,0l-2.24-1.3a.28.28,0,1,1,.29-.48l2,1.14,2.36-5a.28.28,0,0,1,.37-.14.29.29,0,0,1,.14.37l-2.5,5.33A.3.3,0,0,1,60.61,277.66Z" transform="translate(-0.02)" fill="#fff"/>
    <path d="M124.66,248.58c0,.08-12,4.36-26.9,9.57s-27,9.38-27,9.3,12-4.36,26.9-9.57S124.63,248.48,124.66,248.58Z" transform="translate(-0.02)" fill="#e0e0e0"/>
    <path d="M96.37,267.79a5.54,5.54,0,0,1-.87.37l-2.42.9c-2,.74-4.88,1.75-8,2.85s-6,2.07-8,2.77l-2.45.81c-.58.18-.91.27-.91.26a5.54,5.54,0,0,1,.87-.37l2.42-.9c2-.74,4.88-1.75,8-2.85s6-2.07,8-2.77l2.45-.81A7.25,7.25,0,0,1,96.37,267.79Z" transform="translate(-0.02)" fill="#e0e0e0"/>
    <path d="M126,252.26c0,.07-12,4.36-26.9,9.57s-27,9.37-27,9.3,12-4.36,26.9-9.58S125.92,252.18,126,252.26Z" transform="translate(-0.02)" fill="#e0e0e0"/>
    <path d="M19.11,166.78l2.44,7a7.79,7.79,0,0,0,9.92,4.78l51.3-18a7.77,7.77,0,0,0,4.77-9.9h0l-2.44-7Z" transform="translate(-0.02)" fill="#e0e0e0"/>
    <path d="M52.79,157.3A7.3,7.3,0,1,1,57.25,148v0A7.3,7.3,0,0,1,52.79,157.3Zm-3.9-11.13a4.5,4.5,0,1,0,5.73,2.77h0A4.5,4.5,0,0,0,48.89,146.17Z" transform="translate(-0.02)" fill="#e0e0e0"/>
    <path d="M93.79,175.48c0,.13-13.48,5-30.21,10.85S33.25,196.83,33.2,196.7s13.48-5,30.21-10.85S93.74,175.31,93.79,175.48Z" transform="translate(-0.02)" fill="#e0e0e0"/>
    <path d="M76.46,177.93c0,.13-5.9,2.34-13.29,4.93s-13.42,4.62-13.47,4.44S55.61,185,63,182.37,76.42,177.8,76.46,177.93Z" transform="translate(-0.02)" fill="#e0e0e0"/>
  </g>
  <g id="Plants">
    <path d="M343,380.56a19,19,0,0,1,11.81-1.43c2.14.35,4.38,1,5.83,2.6s1.74,4.44.06,5.82a5.52,5.52,0,0,1-3.7.93c-3.13,0-6.59-.59-9.08,1.29-1.43,1.07-2.37,2.85-4.07,3.38a4,4,0,0,1-4.43-2,6.87,6.87,0,0,1-.5-5.07A7.73,7.73,0,0,1,343,380.56Z" transform="translate(-0.02)" fill="#ff725e"/>
    <path d="M334.74,364.68c2.2,3.13,6.47,2.1,8.45.18s2.81-4.69,3.57-7.33c1.74-6,3.5-12.39,2.21-18.55a10.33,10.33,0,0,0-2.37-5,5.41,5.41,0,0,0-5.1-1.7c-2.16.57-3.49,2.68-4.46,4.68a44.32,44.32,0,0,0-4.37,19c0,3.06.35,6.26,2.07,8.79" transform="translate(-0.02)" fill="#ff725e"/>
    <path d="M328.71,369.18a11.42,11.42,0,0,0,1.78-10.51,20.27,20.27,0,0,0-6.22-9,33.66,33.66,0,0,0-11.14-6.57,11.88,11.88,0,0,0-5-.85,5.25,5.25,0,0,0-4.2,2.54c-1.18,2.24,0,4.95,1.16,7.16a83.88,83.88,0,0,0,7.32,11.14c2.19,2.83,4.7,5.62,8,6.9s6.81,1.12,8.58-1.19" transform="translate(-0.02)" fill="#ff725e"/>
    <path d="M334.6,412a7.57,7.57,0,0,0,.19-1.42c.11-1,.23-2.34.38-3.89a55.05,55.05,0,0,1,.88-5.71,43.63,43.63,0,0,1,2.07-6.73,24.74,24.74,0,0,1,3.44-6.09,12.91,12.91,0,0,1,4.35-3.62,12.08,12.08,0,0,1,3.66-1.14,6.84,6.84,0,0,0,1.42-.2,7,7,0,0,0-1.45,0,11.19,11.19,0,0,0-3.81,1,12.82,12.82,0,0,0-4.59,3.64,24.18,24.18,0,0,0-3.56,6.22,39.63,39.63,0,0,0-2.06,6.84,48.88,48.88,0,0,0-.76,5.78c-.13,1.65-.17,3-.19,3.91A5.55,5.55,0,0,0,334.6,412Z" transform="translate(-0.02)" fill="#263238"/>
    <path d="M334.86,409a2.43,2.43,0,0,0,0-.66v-1.86c0-1.64,0-4,.08-7,.15-5.87.65-12.18,1.63-21.08.92-8.37,2.16-18.11,3.47-24.44.28-1.44.56-2.74.83-3.87s.47-2.12.68-2.91.32-1.36.44-1.84q.08-.33.12-.66a2.9,2.9,0,0,0-.23.62c-.15.48-.33,1.08-.55,1.82s-.5,1.76-.78,2.89-.61,2.42-.92,3.86a217.44,217.44,0,0,0-3.61,22.7,223.69,223.69,0,0,0-1.45,22.92c0,2.94,0,5.32.1,7,0,.77.08,1.4.11,1.89A4.2,4.2,0,0,0,334.86,409Z" transform="translate(-0.02)" fill="#263238"/>
    <path d="M334.9,393.34a11.13,11.13,0,0,0,0-2,53.4,53.4,0,0,0-.61-5.35,69.17,69.17,0,0,0-1.74-7.8,64,64,0,0,0-3.26-9.23,49.26,49.26,0,0,0-9.57-14.91,24.86,24.86,0,0,0-2.26-2.09,9.23,9.23,0,0,0-1-.82l-.87-.6a10.72,10.72,0,0,0-1.67-1.06,55.8,55.8,0,0,1,5.45,4.86,51.5,51.5,0,0,1,9.34,14.86,72.08,72.08,0,0,1,3.28,9.14,76,76,0,0,1,1.85,7.72c.41,2.23.65,4,.79,5.3A13.1,13.1,0,0,0,334.9,393.34Z" transform="translate(-0.02)" fill="#263238"/>
    <polygon points="319.74 420.97 321.31 442.47 348.94 442.47 350.51 420.97 319.74 420.97" fill="#263238"/>
    <rect x="317.08" y="412.49" width="36.73" height="8.48" fill="#263238"/>
    <polygon points="317.08 441.65 317.08 444 318.8 444 353.2 444 353.2 441.65 317.08 441.65" fill="#455a64"/>
    <polygon points="320.49 448.13 318.8 444 351.88 444 349.91 448.13 320.49 448.13" fill="#455a64"/>
    <path d="M350,428s0,.08-.13.2l-.41.55-1.61,2.06-.07.09-.07-.1-4-5.46H344l-3.9,5.51L340,431l-.14-.16-4.61-5.5h.26l-.25.32-4.13,5.17L331,431l-.13-.18c-1.4-2-2.71-3.84-3.9-5.51h.23l-4.79,5.46-.09.1-.07-.11c-.63-1.06-1.13-1.91-1.5-2.52l-.38-.67a.9.9,0,0,1-.12-.24,1.51,1.51,0,0,1,.16.21l.43.65,1.57,2.47h-.15l4.72-5.53.12-.14.11.15,3.93,5.49h-.27l4.15-5.17.26-.32.13-.17.13.16,4.61,5.51h-.26l3.93-5.49.11-.16.12.16c1.55,2.23,2.88,4.12,3.87,5.53h-.15l1.68-2,.45-.52Z" transform="translate(-0.02)" fill="#e0e0e0"/>
    <path d="M350.91,420.82c0,.1-6.92.18-15.46.18s-15.46-.08-15.46-.18,6.92-.17,15.46-.17S350.91,420.73,350.91,420.82Z" transform="translate(-0.02)" fill="#455a64"/>
    <path d="M352.31,444.23c0,.09-7.53.17-16.8.17s-16.8-.08-16.8-.17,7.52-.18,16.8-.18S352.31,444.13,352.31,444.23Z" transform="translate(-0.02)" fill="#263238"/>
    <path d="M79.82,375.63c-.08.09-.71-.29-1.41-.85s-1.21-1.09-1.13-1.19.7.29,1.4.85S79.89,375.53,79.82,375.63Z" transform="translate(-0.02)" fill="#263238"/>
    <path d="M99,347a22,22,0,0,0-.65-7.95c-.84-2.55-2.8-4.88-5.42-5.43-3-.62-6.06,1.27-7.74,3.83s-2.25,5.66-2.75,8.67a306.4,306.4,0,0,0-3.75,62.95L91,410.78C96.28,388.81,98,369.6,99,347Z" transform="translate(-0.02)" fill="#455a64"/>
    <path d="M91.2,333.48l-.06.2-.2.55-.82,2.12c-.17.46-.4,1-.58,1.53L89,339.73l-.69,2.13-.63,2.43a104.94,104.94,0,0,0-2.37,12.19c-.66,4.6-1.09,9.7-1.44,15.06-.62,10.73-.72,20.47-1,27.51-.13,3.53-.25,6.38-.38,8.34l-.16,2.27v0c0-.55,0-1.31.07-2.27.08-2,.15-4.81.24-8.34.2-7,.25-16.78.88-27.52.34-5.37.79-10.48,1.47-15.1a100.43,100.43,0,0,1,2.47-12.14l.66-2.43q.39-1.12.72-2.13l.64-1.85c.19-.56.43-1.06.61-1.52l.9-2.08q.14-.33.24-.54A.71.71,0,0,1,91.2,333.48Z" transform="translate(-0.02)" fill="#263238"/>
    <path d="M92.33,333.53a8.87,8.87,0,0,1,1.5,2.53A18.74,18.74,0,0,1,94.94,344c-.32,6.77-.93,16.09-1.73,26.39S91.5,390,90.78,396.7c-.37,3.36-.68,6.08-.91,8-.12.91-.21,1.63-.28,2.16l-.08.56v-.57c0-.53.11-1.25.19-2.17.19-1.92.45-4.63.77-8,.64-6.74,1.49-16,2.3-26.34s1.46-19.61,1.86-26.36a19,19,0,0,0-1-7.85A17.05,17.05,0,0,0,92.33,333.53Z" transform="translate(-0.02)" fill="#263238"/>
    <path d="M100.82,365.22a6.69,6.69,0,0,1-2.32-.6,6.7,6.7,0,0,1-2.17-1,6.47,6.47,0,0,1,2.32.6A6.7,6.7,0,0,1,100.82,365.22Z" transform="translate(-0.02)" fill="#263238"/>
    <path d="M102.3,352.74a7.5,7.5,0,0,1-2.21,1.23,7.47,7.47,0,0,1-2.39.83A14.44,14.44,0,0,1,102.3,352.74Z" transform="translate(-0.02)" fill="#263238"/>
    <path d="M101.53,342.55a7.41,7.41,0,0,1-3.62-.25,7.76,7.76,0,0,1,3.62.25Z" transform="translate(-0.02)" fill="#263238"/>
    <path d="M88.89,336c-.1.06-.64-.61-1.19-1.49a4.48,4.48,0,0,1-.83-1.73c.1-.06.64.6,1.2,1.49S89,336,88.89,336Z" transform="translate(-0.02)" fill="#263238"/>
    <path d="M84.72,342.19a3.67,3.67,0,0,1-1.74.18,3.54,3.54,0,0,1-1.73-.26,3.67,3.67,0,0,1,1.74-.18A3.54,3.54,0,0,1,84.72,342.19Z" transform="translate(-0.02)" fill="#263238"/>
    <path d="M81.72,354.48a4.31,4.31,0,0,1-1.83-.5,4.39,4.39,0,0,1-1.67-.91,4.31,4.31,0,0,1,1.83.5A4.39,4.39,0,0,1,81.72,354.48Z" transform="translate(-0.02)" fill="#263238"/>
    <path d="M81.4,364.87a3.29,3.29,0,0,1-1.56.55c-.89.18-1.62.25-1.65.13s.68-.37,1.56-.55A3.42,3.42,0,0,1,81.4,364.87Z" transform="translate(-0.02)" fill="#263238"/>
    <path d="M80,381.83a3.71,3.71,0,0,1-1.66.52,3.62,3.62,0,0,1-1.73.08,3.59,3.59,0,0,1,1.66-.51A3.62,3.62,0,0,1,80,381.83Z" transform="translate(-0.02)" fill="#263238"/>
    <path d="M79,391.19c.06.1-.56.54-1.38,1s-1.53.7-1.58.59.56-.54,1.38-1S79,391.08,79,391.19Z" transform="translate(-0.02)" fill="#263238"/>
    <path d="M86.69,401.81c-.1.06-.64-.68-1.2-1.66a4.8,4.8,0,0,1-.82-1.88c.1-.06.64.68,1.2,1.66A4.8,4.8,0,0,1,86.69,401.81Z" transform="translate(-0.02)" fill="#263238"/>
    <path d="M88.9,384.16c.08.08-.52.81-1.34,1.62s-1.56,1.39-1.65,1.3.52-.81,1.34-1.62S88.81,384.07,88.9,384.16Z" transform="translate(-0.02)" fill="#263238"/>
    <path d="M88.41,374.89c-.09.09-.64-.37-1.24-1s-1-1.24-.92-1.32.64.37,1.24,1S88.5,374.81,88.41,374.89Z" transform="translate(-0.02)" fill="#263238"/>
    <path d="M89.93,363.06c.09.08-.41.79-1.12,1.57s-1.35,1.37-1.44,1.29.41-.79,1.11-1.58S89.84,363,89.93,363.06Z" transform="translate(-0.02)" fill="#263238"/>
    <path d="M90.78,354.48c-.09.09-.78-.46-1.56-1.22s-1.33-1.45-1.25-1.54.78.46,1.56,1.23S90.86,354.39,90.78,354.48Z" transform="translate(-0.02)" fill="#263238"/>
    <path d="M92.46,342.86a4.3,4.3,0,0,1-.79,1.74c-.53.9-1,1.58-1.15,1.52a4.28,4.28,0,0,1,.78-1.74C91.84,343.48,92.35,342.8,92.46,342.86Z" transform="translate(-0.02)" fill="#263238"/>
    <path d="M95.61,332.1c.11.06-.2.84-.69,1.74a4.76,4.76,0,0,1-1.08,1.54,4.24,4.24,0,0,1,.69-1.74C95,332.73,95.5,332.05,95.61,332.1Z" transform="translate(-0.02)" fill="#263238"/>
    <path d="M99.19,337c0,.11-.44.45-1.1.77s-1.23.48-1.28.37.44-.45,1.1-.77S99.14,336.88,99.19,337Z" transform="translate(-0.02)" fill="#263238"/>
    <path d="M99.27,375.63a7.47,7.47,0,0,1-4.47-1.91,13,13,0,0,1,2.25.93A11.89,11.89,0,0,1,99.27,375.63Z" transform="translate(-0.02)" fill="#263238"/>
    <path d="M97.81,383.81a3.67,3.67,0,0,1-1.65.54,3.5,3.5,0,0,1-1.73.11,3.74,3.74,0,0,1,1.65-.54C97,383.74,97.79,383.69,97.81,383.81Z" transform="translate(-0.02)" fill="#263238"/>
    <path d="M96,397.84c-.07.1-1-.55-1.86-1.63A4.87,4.87,0,0,1,93,394a14,14,0,0,1,1.51,1.92A13.91,13.91,0,0,1,96,397.84Z" transform="translate(-0.02)" fill="#263238"/>
    <path d="M76.33,404.26c-.08-.09.42-.65,1.11-1.24s1.32-1,1.4-.9-.42.64-1.11,1.24S76.41,404.35,76.33,404.26Z" transform="translate(-0.02)" fill="#263238"/>
    <path d="M70.67,373.64c-.8-2.49-2.29-5.39-4.9-5.43a4.35,4.35,0,0,0-3.68,2.46,9,9,0,0,0-1,4.5,117.43,117.43,0,0,0,5.61,32.62h9.57A113.86,113.86,0,0,0,70.67,373.64Z" transform="translate(-0.02)" fill="#455a64"/>
    <path d="M53.38,358a10.62,10.62,0,0,0-10-8.5c-4.23.74-5.87,4.9-6.37,9.16s.82,8.5,2.13,12.59q6.28,19.68,12.58,39.37l11.9-1.3C59.9,391.71,57.74,375.41,53.38,358Z" transform="translate(-0.02)" fill="#455a64"/>
    <path d="M65.77,368.21a9.28,9.28,0,0,0-.81,1.35,8.81,8.81,0,0,0-.45,4.23c.18,1.82.39,4,.7,6.4s.74,5,1.28,7.78c1.08,5.5,2.3,10.42,3.07,14,.39,1.79.69,3.25.87,4.26.08.47.15.85.2,1.17s.06.41,0,.41a2.91,2.91,0,0,1-.12-.39l-.28-1.15c-.26-1.07-.6-2.5-1-4.23-.85-3.58-2.12-8.49-3.2-14-.54-2.76-1-5.4-1.25-7.82-.16-1.2-.26-2.36-.36-3.43s-.2-2.08-.25-3a8.74,8.74,0,0,1,.6-4.32A3.73,3.73,0,0,1,65.77,368.21Z" transform="translate(-0.02)" fill="#263238"/>
    <path d="M43.6,349.13a15.13,15.13,0,0,0-1.44,1.93,13.55,13.55,0,0,0-1.81,6.23,29.09,29.09,0,0,0,1.47,9.57c1,3.54,2.19,7.43,3.4,11.5,2.37,8.16,4.51,15.54,6.08,20.93l1.8,6.36c.2.72.35,1.29.47,1.73a2.55,2.55,0,0,1,.13.61,3.14,3.14,0,0,1-.22-.58c-.13-.44-.32-1-.54-1.72-.47-1.53-1.13-3.68-1.93-6.31l-6.21-20.9c-1.2-4.09-2.33-8-3.37-11.52a28.5,28.5,0,0,1-1.39-9.7,13.44,13.44,0,0,1,2-6.3A7.39,7.39,0,0,1,43.6,349.13Z" transform="translate(-0.02)" fill="#263238"/>
    <path d="M61.07,408a5.94,5.94,0,0,1-.27-.57c-.15-.39-.4-.94-.67-1.68a57.18,57.18,0,0,1-2-6.31c-.7-2.7-1.5-6-2.22-9.6s-1.44-7.63-2.24-11.83a114.67,114.67,0,0,0-2.81-11.68,66.7,66.7,0,0,0-3.47-9.17,48.61,48.61,0,0,0-3.21-5.78c-.41-.66-.78-1.15-1-1.49a3,3,0,0,1-.33-.54,3.64,3.64,0,0,1,.4.48c.25.34.64.8,1.07,1.46a43.22,43.22,0,0,1,3.35,5.74,61.63,61.63,0,0,1,3.57,9.18A115.31,115.31,0,0,1,54,378c.79,4.19,1.53,8.19,2.21,11.84s1.4,6.88,2.12,9.59,1.39,4.86,1.91,6.33c.24.75.47,1.31.6,1.7A3.14,3.14,0,0,1,61.07,408Z" transform="translate(-0.02)" fill="#263238"/>
    <path d="M39.4,369.26a3.18,3.18,0,0,1-1.45.57c-.83.2-1.52.27-1.54.15s.61-.37,1.44-.57S39.37,369.14,39.4,369.26Z" transform="translate(-0.02)" fill="#263238"/>
    <path d="M38.14,361.14a6.15,6.15,0,0,1-2,.22,6.1,6.1,0,0,1-2-.06,3.94,3.94,0,0,1,2-.38A4,4,0,0,1,38.14,361.14Z" transform="translate(-0.02)" fill="#263238"/>
    <path d="M39.48,353.72c-.08.1-.73-.32-1.44-.93s-1.24-1.18-1.16-1.27.72.32,1.44.93S39.56,353.63,39.48,353.72Z" transform="translate(-0.02)" fill="#263238"/>
    <path d="M43.11,346.86c.12,0,.08.61.07,1.3s0,1.28-.15,1.3-.31-.56-.29-1.31S43,346.83,43.11,346.86Z" transform="translate(-0.02)" fill="#263238"/>
    <path d="M50.52,350.09c.1.07-.19.66-.65,1.31s-.91,1.13-1,1.06.19-.65.64-1.31S50.42,350,50.52,350.09Z" transform="translate(-0.02)" fill="#263238"/>
    <path d="M55.33,358.48a3.3,3.3,0,0,1-1.37.8c-.8.33-1.5.5-1.54.39s.57-.47,1.37-.79S55.29,358.34,55.33,358.48Z" transform="translate(-0.02)" fill="#263238"/>
    <path d="M58.25,367.05a3.46,3.46,0,0,1-1.88.83,3.7,3.7,0,0,1-2.06.07,8,8,0,0,1,2-.5A8.07,8.07,0,0,1,58.25,367.05Z" transform="translate(-0.02)" fill="#263238"/>
    <path d="M44.85,364.61c-.11,0,0-.63.19-1.33s.49-1.23.6-1.19,0,.63-.19,1.33S45,364.65,44.85,364.61Z" transform="translate(-0.02)" fill="#263238"/>
    <path d="M46.72,375.41a4.19,4.19,0,0,1,.54-1.79c.41-.94.83-1.66.94-1.61a4.19,4.19,0,0,1-.54,1.79C47.25,374.74,46.83,375.48,46.72,375.41Z" transform="translate(-0.02)" fill="#263238"/>
    <path d="M42.1,378.37a4.39,4.39,0,0,1-1.71-.38c-.91-.29-1.65-.55-1.62-.67a3.28,3.28,0,0,1,1.75.25C41.45,377.86,42.15,378.26,42.1,378.37Z" transform="translate(-0.02)" fill="#263238"/>
    <path d="M44.76,387.17c.07.1-.44.58-1.13,1.08s-1.33.82-1.4.73.44-.59,1.14-1.09S44.69,387.07,44.76,387.17Z" transform="translate(-0.02)" fill="#263238"/>
    <path d="M46.9,396a3,3,0,0,1-1.41.56c-.81.19-1.48.26-1.51.15s.6-.37,1.41-.57S46.87,395.83,46.9,396Z" transform="translate(-0.02)" fill="#263238"/>
    <path d="M58.49,374.39c.06.1-.48.53-1.26.82s-1.48.33-1.5.22.6-.34,1.34-.63S58.43,374.28,58.49,374.39Z" transform="translate(-0.02)" fill="#263238"/>
    <path d="M60.14,388c0,.11-.69-.08-1.43-.43s-1.3-.72-1.25-.83.7.09,1.44.43S60.2,387.93,60.14,388Z" transform="translate(-0.02)" fill="#263238"/>
    <path d="M63.07,397.82a4.68,4.68,0,0,1-1.9-.51c-1-.39-1.77-.8-1.73-.92a4.63,4.63,0,0,1,1.89.51C62.33,397.29,63.11,397.7,63.07,397.82Z" transform="translate(-0.02)" fill="#263238"/>
    <path d="M47.37,405.48c-.06-.11.72-.63,1.62-1.34s1.6-1.35,1.69-1.26-.48.86-1.42,1.6A3.82,3.82,0,0,1,47.37,405.48Z" transform="translate(-0.02)" fill="#263238"/>
    <path d="M55.09,400.48c-.12,0-.29-.64-.59-1.4s-.6-1.37-.5-1.44.6.45.91,1.28S55.21,400.48,55.09,400.48Z" transform="translate(-0.02)" fill="#263238"/>
    <path d="M53,388.75c-.07.1-.57-.14-1.12-.53s-.93-.79-.86-.89.57.14,1.12.53S53.12,388.65,53,388.75Z" transform="translate(-0.02)" fill="#263238"/>
    <path d="M71,370.33c.07.1-.42.58-1.09,1.07s-1.27.82-1.34.72.41-.57,1.08-1.07S71,370.23,71,370.33Z" transform="translate(-0.02)" fill="#263238"/>
    <path d="M73.77,377.75c0,.12-.75.28-1.69.18s-1.65-.42-1.62-.53a5.19,5.19,0,0,1,1.67.09C73,377.58,73.76,377.63,73.77,377.75Z" transform="translate(-0.02)" fill="#263238"/>
    <path d="M62.1,379.42a2.75,2.75,0,0,1-1.59.42c-.92.06-1.64-.09-1.63-.21s.73-.16,1.61-.22S62.08,379.3,62.1,379.42Z" transform="translate(-0.02)" fill="#263238"/>
    <path d="M63.11,372.4c0,.12-.72.14-1.5-.23s-1.23-.9-1.15-1,.62.28,1.33.6S63.12,372.28,63.11,372.4Z" transform="translate(-0.02)" fill="#263238"/>
    <path d="M74.77,385.72c-.06.1-.79-.24-1.63-.77s-1.46-1-1.39-1.14.79.25,1.63.77S74.84,385.62,74.77,385.72Z" transform="translate(-0.02)" fill="#263238"/>
    <rect x="40.97" y="406.55" width="62.25" height="11.03" fill="#ff725e"/>
    <polygon points="45.62 415.39 53.19 448.36 90.29 448.36 98.58 415.39 45.62 415.39" fill="#ff725e"/>
    <path d="M103.21,417.59c0,.12-14,.22-31.36.22s-31.36-.1-31.36-.22,14-.22,31.36-.22S103.21,417.48,103.21,417.59Z" transform="translate(-0.02)" fill="#263238"/>
    <path d="M68.59,379.66c-.1.06-.53-.43-1-1.11s-.68-1.28-.58-1.34.53.43,1,1.11S68.69,379.59,68.59,379.66Z" transform="translate(-0.02)" fill="#263238"/>
    <path d="M68.61,388.53a3.43,3.43,0,0,1,.33-1.67c.29-.89.63-1.58.74-1.54a3.47,3.47,0,0,1-.33,1.68C69,387.88,68.73,388.57,68.61,388.53Z" transform="translate(-0.02)" fill="#263238"/>
    <path d="M71.65,397.85c-.11.06-.57-.69-1-1.66a4.49,4.49,0,0,1-.64-1.85c.11-.06.57.69,1,1.66A4.49,4.49,0,0,1,71.65,397.85Z" transform="translate(-0.02)" fill="#263238"/>
    <path d="M65.08,405.35c-.09-.08.28-.65.83-1.29s1.06-1.08,1.16-1-.28.66-.83,1.29S65.17,405.48,65.08,405.35Z" transform="translate(-0.02)" fill="#263238"/>
    <path d="M63.7,391.74c0,.12-.62.11-1.34,0s-1.28-.32-1.26-.44.62-.11,1.33,0S63.72,391.62,63.7,391.74Z" transform="translate(-0.02)" fill="#263238"/>
  </g>
  <g id="Character">
    <rect x="132.63" y="330.72" width="147.62" height="117.72" fill="#e0e0e0"/>
    <g opacity="0.3">
      <path d="M143.4,331c17.38,6.2,36.55,7.53,55.2,7.88,3.87.07,7.78.06,11.52,1s7.35,3.07,9.27,6.42c2.09,3.65,1.87,8.22.68,12.25s-3.24,7.76-4.72,11.69A43.68,43.68,0,0,0,213,392a20.54,20.54,0,0,0,3.08,8.8,10.08,10.08,0,0,0,7.82,4.58c5.61.08,9.45-5.43,12.23-10.31,11.41-20,23.75-42.7,31-64.53Z" transform="translate(-0.02)"/>
    </g>
    <path d="M183,447.81c-.15,0-.26-26.09-.26-58.27s.11-58.28.26-58.28.26,26.09.26,58.28S183.09,447.81,183,447.81Z" transform="translate(-0.02)" fill="#455a64"/>
    <path d="M243.44,243.72c-.44-2.94-9.22-12.64-9.22-12.64s-4.38-17.61-5.7-22.8a17.16,17.16,0,0,0-1.91-4.26,34.25,34.25,0,0,0-12.8-12.35l-12.15-6.83-2.9-6.46-29.18-15-7.91,14s-19.21,6.1-21.75,10.43,1.26,62.8,1.26,62.8-8,33.72-9.73,40.7.54,15.3.54,15.3l14.31-17.95c4.45-5.58,14.21-8.15,21.22-8.05l59.91.27L225,264.1l48.47,9.38s8.33-16.26,9-16.58S243.44,243.72,243.44,243.72Z" transform="translate(-0.02)" fill="#ff725e"/>
    <path d="M168.34,182.83c-.42-.43,3.38,12.42,8.16,25.51a64.35,64.35,0,0,1,3.87,22.07v47.4l28.72-1.95-4.29-31.22s-3.5-20.14-4.48-27.8c-.9-7-4-26-4-26S180.37,195.08,168.34,182.83Z" transform="translate(-0.02)" fill="#fff"/>
    <path d="M232.08,255.48a2.24,2.24,0,0,1,0-.73,10.63,10.63,0,0,1,.38-1.93,13,13,0,0,1,8.85-8.87,10.63,10.63,0,0,1,1.93-.38,1.75,1.75,0,0,1,.72,0c0,.09-1,.2-2.54.73a13.85,13.85,0,0,0-8.61,8.63C232.28,254.48,232.17,255.48,232.08,255.48Z" transform="translate(-0.02)" fill="#263238"/>
    <path d="M233.56,244.12a9.27,9.27,0,0,1,4.39-1.27,9,9,0,0,1,4.53.54c0,.16-2-.23-4.49,0S233.62,244.27,233.56,244.12Z" transform="translate(-0.02)" fill="#263238"/>
    <g opacity="0.3">
      <path d="M138.29,270l-2.5,2.82a20.18,20.18,0,0,0,10.12,6.7,51.61,51.61,0,0,0,12.21,1.1,17.49,17.49,0,0,0,4.94-.47c1.63-.47,3.14-1.39,4.83-1.49a12.67,12.67,0,0,1,3.35.48,6.49,6.49,0,0,0,3.36.05,2.64,2.64,0,0,0,2-2.47A176.27,176.27,0,0,0,138.29,270Z" transform="translate(-0.02)"/>
    </g>
    <path d="M220.29,273.61l-7-7.48-14.55-3.65s-13.28,4-13.6,4-11.56-3.08-11.56-3.08l-3.93,14.42,20.25,1.39,23.12-.93s1.21-1.12.49-1.89,3.87,1.3,4.41,1.32,1.58.44,2.3-.42C220.71,276.65,221.37,274.76,220.29,273.61Z" transform="translate(-0.02)" fill="#ffbe9d"/>
    <path d="M213.51,276.34a12.89,12.89,0,0,1-2.3-.66c-1.4-.44-3.35-1-5.52-1.6s-4.17-1-5.62-1.25a11.78,11.78,0,0,1-2.33-.55,10.66,10.66,0,0,1,2.39.18,52.3,52.3,0,0,1,5.68,1.12,48.51,48.51,0,0,1,5.52,1.76A9.57,9.57,0,0,1,213.51,276.34Z" transform="translate(-0.02)" fill="#eb996e"/>
    <path d="M220.29,273.61a32.43,32.43,0,0,1-3.22-1c-2-.66-4.73-1.48-7.8-2.33s-5.79-1.82-7.86-1.94a18.67,18.67,0,0,0-3.34.13,2.73,2.73,0,0,1,.87-.3,9.46,9.46,0,0,1,2.49-.2c2.14,0,5,.91,8,1.81s5.82,1.73,7.78,2.49c1,.37,1.75.71,2.29,1A2.91,2.91,0,0,1,220.29,273.61Z" transform="translate(-0.02)" fill="#eb996e"/>
    <path d="M139.92,187.81s-10.45,7.27-13,17.73-13.56,53.21-11.3,59.6,46.2,12.67,46.2,12.67l5.21-22-22.32-6.11s.29-20.35.57-28.78S139.92,187.81,139.92,187.81Z" transform="translate(-0.02)" fill="#ff725e"/>
    <polygon points="166.73 259.12 173.92 260.89 169.6 277.48 162.53 276.34 166.73 259.12" fill="#fff"/>
    <path d="M115.46,262.88a6.46,6.46,0,0,0,.11,1,4.84,4.84,0,0,0,1.53,2.49c1.91,1.78,5.56,3.26,10.18,4.09h0c2.11.7,4.52,1.25,7.09,1.83s5.35,1.17,8.27,1.76c5.85,1.2,12.32,2.46,19.18,3.74l-.3.19c.49-2,1-4.19,1.55-6.38,1.23-5,2.43-9.92,3.56-14.55l.18.3L147,251.74h0a19.72,19.72,0,0,0-8.65-1.52,19.36,19.36,0,0,0-6.53,1.54,22.12,22.12,0,0,0-3.75,2.08l-.91.66a2.2,2.2,0,0,1-.32.21,3.09,3.09,0,0,1,.28-.26c.19-.16.48-.41.88-.71a19.93,19.93,0,0,1,3.73-2.19,19.08,19.08,0,0,1,6.6-1.65,19.87,19.87,0,0,1,8.82,1.46h0L167,256.92l.24.06-.06.24c-1.13,4.63-2.32,9.51-3.54,14.56-.54,2.18-1.06,4.34-1.56,6.37l-.06.24h-.24c-6.86-1.29-13.32-2.57-19.17-3.79-2.92-.61-5.69-1.22-8.27-1.82s-5-1.17-7.12-1.9h0c-4.68-.89-8.33-2.43-10.26-4.3a4.8,4.8,0,0,1-1.5-2.61A3.07,3.07,0,0,1,115.46,262.88Z" transform="translate(-0.02)" fill="#263238"/>
    <path d="M145.93,251.19c-.06.07-.81-.62-2.15-1.51a20.57,20.57,0,0,0-11.88-3.47c-1.62,0-2.61.22-2.63.13a8.32,8.32,0,0,1,2.61-.49A18.2,18.2,0,0,1,144,249.38,8,8,0,0,1,145.93,251.19Z" transform="translate(-0.02)" fill="#263238"/>
    <path d="M148.86,215.39a7.5,7.5,0,0,1,0,1.34c0,.87-.09,2.11-.21,3.65-.25,3.07-.7,7.3-1.51,11.94A81.14,81.14,0,0,1,144.37,244c-.24.73-.5,1.39-.71,2l-.64,1.44a6.46,6.46,0,0,1-.69,1.16,7,7,0,0,1,.5-1.24c.17-.43.35-.92.56-1.46s.41-1.24.63-2a106.24,106.24,0,0,0,2.61-11.7c.8-4.62,1.31-8.83,1.65-11.89.15-1.45.28-2.66.38-3.62A5.57,5.57,0,0,1,148.86,215.39Z" transform="translate(-0.02)" fill="#263238"/>
    <path d="M174.34,204.06a7.74,7.74,0,0,0-.34-.74,4.49,4.49,0,0,0-1.51-1.64,3.75,3.75,0,0,0-3.25-.48,4.18,4.18,0,0,0-2.74,3.11l-.14.71-.31-.66a69.16,69.16,0,0,1-3.05-7.72A40.59,40.59,0,0,1,160.74,183c0-.89.12-1.69.17-2.4a10.86,10.86,0,0,1,.32-1.78,9.66,9.66,0,0,1,.44-1.48,35.83,35.83,0,0,0-.57,5.66,43.6,43.6,0,0,0,2.39,13.48,75.38,75.38,0,0,0,3,7.68l-.45.06a4.6,4.6,0,0,1,3.09-3.39,4,4,0,0,1,3.53.61,4.35,4.35,0,0,1,1.48,1.81,2.47,2.47,0,0,1,.19.6C174.35,204,174.36,204.06,174.34,204.06Z" transform="translate(-0.02)" fill="#263238"/>
    <path d="M198.72,206.31a8.06,8.06,0,0,1-.23-1.19,12.55,12.55,0,0,1-.21-3.35,7,7,0,0,1,2.41-4.43,4.62,4.62,0,0,1,2.91-1.05,4,4,0,0,1,3.06,1.37l-.44.26-.95-2.39c-1.87-4.71-3.53-9-4.71-12.09l-1.37-3.69a7.26,7.26,0,0,1-.43-1.37,7.75,7.75,0,0,1,.62,1.3c.4,1,.91,2.17,1.53,3.63,1.27,3.07,3,7.32,4.85,12l.94,2.4.61,1.54-1-1.29a3.47,3.47,0,0,0-2.67-1.2,4.15,4.15,0,0,0-2.62.91,6.8,6.8,0,0,0-2.35,4.11,13.92,13.92,0,0,0,.06,3.29A5.14,5.14,0,0,1,198.72,206.31Z" transform="translate(-0.02)" fill="#263238"/>
    <path d="M217.27,208.79c.14,0,2.4,15.18,5,34s4.67,34,4.53,34-2.4-15.18-5-34S217.13,208.81,217.27,208.79Z" transform="translate(-0.02)" fill="#263238"/>
    <g opacity="0.3">
      <path d="M163.3,196.8a31.39,31.39,0,0,0,2.49,11.3c1.09-1.35,2.3-2.77,4-3.17,2.06-.49,4.15.78,5.64,2.34a10.19,10.19,0,0,0-1.8-4.32,5.08,5.08,0,0,0-4-2.07,3.51,3.51,0,0,0-3.33,2.72l-2.87-6.73" transform="translate(-0.02)"/>
    </g>
    <path d="M146.41,207.79c-.09,0-.06-1-.36-2.68a16.49,16.49,0,0,0-2.43-6,18,18,0,0,0-2.29-2.71,15.18,15.18,0,0,0-2.29-1.79c-1.41-.89-2.4-1.23-2.36-1.32a2.12,2.12,0,0,1,.71.18,4.67,4.67,0,0,1,.81.31,7.29,7.29,0,0,1,1,.52,13.81,13.81,0,0,1,2.43,1.74,16.64,16.64,0,0,1,2.39,2.78,14.87,14.87,0,0,1,2.36,6.18,10.28,10.28,0,0,1,.1,2C146.48,207.53,146.45,207.79,146.41,207.79Z" transform="translate(-0.02)" fill="#263238"/>
    <path d="M204.46,136.48a21.43,21.43,0,0,0-21.86-19.15h-1.11c-12,1-17.77,11.71-16.43,23.62l3.28,41.9,1.39,1.7a22.4,22.4,0,0,0,26.6,6.27h0l-.92-13.48s11.46-2.08,11.3-13.58C206.64,158.18,205.56,146.76,204.46,136.48Z" transform="translate(-0.02)" fill="#ffbe9d"/>
    <path d="M195.5,177.31a27.82,27.82,0,0,1-15.17-4s3.75,8.19,15.2,6.86Z" transform="translate(-0.02)" fill="#eb996e"/>
    <path d="M200.82,145.94a1.65,1.65,0,0,1-1.54,1.7,1.58,1.58,0,0,1-1.73-1.42v0a1.65,1.65,0,0,1,1.54-1.7,1.57,1.57,0,0,1,1.73,1.4Z" transform="translate(-0.02)" fill="#263238"/>
    <path d="M201.55,139.69c-.13.2-1.43.34-3,1.18s-2.49,1.89-2.7,1.87,0-.29.39-.76a7.56,7.56,0,0,1,2.1-1.63,6.76,6.76,0,0,1,2.44-.81C201.37,139.48,201.62,139.59,201.55,139.69Z" transform="translate(-0.02)" fill="#263238"/>
    <path d="M184.22,146.81a1.63,1.63,0,0,1-1.54,1.7,1.57,1.57,0,0,1-1.73-1.4v0a1.65,1.65,0,0,1,1.54-1.7,1.57,1.57,0,0,1,1.73,1.4Z" transform="translate(-0.02)" fill="#263238"/>
    <path d="M184,142.1a27.63,27.63,0,0,0-3-1.09c-1.7-.42-3.11-.33-3.26-.47s.18-.2.79-.25a8.44,8.44,0,0,1,2.65.25,7.81,7.81,0,0,1,2.36,1C184,141.86,184.08,142.08,184,142.1Z" transform="translate(-0.02)" fill="#263238"/>
    <path d="M190.9,155.83a12.23,12.23,0,0,1,2.86-.59c.45,0,.87-.16.94-.47a2.28,2.28,0,0,0-.33-1.32L192.94,150c-2-4.84-3.42-8.83-3.22-8.9s2,3.78,3.93,8.62c.48,1.2.94,2.34,1.37,3.43a2.63,2.63,0,0,1,.28,1.76,1.15,1.15,0,0,1-.73.68,2.82,2.82,0,0,1-.76.13A11.34,11.34,0,0,1,190.9,155.83Z" transform="translate(-0.02)" fill="#263238"/>
    <path d="M184,135.28c-.2.47-2,.16-4,.3s-3.79.64-4,.19c-.12-.21.2-.65.89-1.08a7,7,0,0,1,6.15-.38C183.72,134.66,184.08,135.05,184,135.28Z" transform="translate(-0.02)" fill="#263238"/>
    <path d="M201.51,135.67c-.39.41-1.91,0-3.73,0s-3.37.31-3.73-.11c-.16-.2.08-.61.75-1a6.13,6.13,0,0,1,3-.69,6,6,0,0,1,3,.78C201.46,135.06,201.68,135.48,201.51,135.67Z" transform="translate(-0.02)" fill="#263238"/>
    <path d="M207.81,126.26a2.19,2.19,0,0,0-2.3-1.77,4.56,4.56,0,0,0,1.58-.81,1.58,1.58,0,0,0,.55-1.6c-.3-.89-1.44-1.08-2.34-1.33a6,6,0,0,1-3-2c-1.09-1.38-1.51-3.18-2.46-4.67a7.63,7.63,0,0,0-10.54-2.33,7.91,7.91,0,0,0-1.28,1,8,8,0,0,0-11.24-.16,8.21,8.21,0,0,0-1.55,2.11,9.28,9.28,0,0,0-12.7,10.15l7.16,4.39a3.87,3.87,0,0,1,4.26-3.44,3.69,3.69,0,0,1,.46.08c2.16.63,3.54,3.13,5.78,3.3,1.75.13,3.24-1.22,4.93-1.67,2-.55,4.22.27,6.07,1.31s3.62,2.34,5.68,2.86a11.81,11.81,0,0,0,7.29-.87,7.29,7.29,0,0,0,2.7-1.67A3.34,3.34,0,0,0,207.81,126.26Z" transform="translate(-0.02)" fill="#263238"/>
    <path d="M170.9,125.89l32.8-.18a14.84,14.84,0,0,0-5-5.44,25.63,25.63,0,0,0-15-4.93c-5.35,0-16,6.87-19.82,10.66-3,3-2.92,5.59-2.92,5.59-.38,4.26,2.13,9,3.2,13.17.54,2.14,1.67,8.62,1.67,8.62h0c1.8,0,2.43-1.51,2.11-3.29l-.53-7a10.58,10.58,0,0,0,2.89-12.44C169.85,130,168.77,127.14,170.9,125.89Z" transform="translate(-0.02)" fill="#263238"/>
    <path d="M166.94,142.63c-1.67-5.8-3.21-12-1.43-17.8h-1l-.4.29a4.59,4.59,0,0,0-5.16,7.07,4,4,0,0,0-4,3.47,7.34,7.34,0,0,0,1.07,3.82,8.9,8.9,0,0,1,1.25,3.8,2.84,2.84,0,0,1-2.18,2.95A3.27,3.27,0,0,0,158.8,148a6.6,6.6,0,0,1-2.25,2.84c2.14,1.46,5.07,1,7.39-.17a6.32,6.32,0,0,0,3.3-3.06C167.88,146,167.4,144.27,166.94,142.63Z" transform="translate(-0.02)" fill="#263238"/>
    <path d="M166.4,149.4c-.2-.08-8-2.13-7.51,5.72s8.25,5.78,8.25,5.55S166.4,149.4,166.4,149.4Z" transform="translate(-0.02)" fill="#ffbe9d"/>
    <path d="M165.26,157.82a2.67,2.67,0,0,1-.36.22,1.38,1.38,0,0,1-1,.08c-.85-.26-1.62-1.53-1.74-3a4.54,4.54,0,0,1,.27-2,1.59,1.59,0,0,1,1-1.11.71.71,0,0,1,.83.33c.12.21.07.37.12.39s.16-.15.08-.47a.94.94,0,0,0-.34-.47,1,1,0,0,0-.77-.16A1.94,1.94,0,0,0,162,153a4.81,4.81,0,0,0-.35,2.22c.15,1.58,1,3,2.2,3.28a1.51,1.51,0,0,0,1.23-.28C165.26,158,165.29,157.83,165.26,157.82Z" transform="translate(-0.02)" fill="#eb996e"/>
    <path d="M158.25,142.89a1.37,1.37,0,0,1-.15-.92,3,3,0,0,1,1.47-2,9,9,0,0,1,3.6-.87,4.43,4.43,0,0,0,3.58-1.82,6.55,6.55,0,0,0,.62-4.13c-.19-1.32-.54-2.51-.71-3.54a5.78,5.78,0,0,1,.05-3.37,15.78,15.78,0,0,0,.37,3.28c.22,1,.61,2.17.85,3.56a6.88,6.88,0,0,1-.66,4.52,3.81,3.81,0,0,1-1.87,1.58,8.11,8.11,0,0,1-2.17.48,9.51,9.51,0,0,0-3.45.68,2.94,2.94,0,0,0-1.45,1.72A7.53,7.53,0,0,0,158.25,142.89Z" transform="translate(-0.02)" fill="#455a64"/>
    <path d="M156.35,139.48a1.6,1.6,0,0,1-.24-.71,3.39,3.39,0,0,1,.39-2,3.71,3.71,0,0,1,.93-1.12,3.87,3.87,0,0,1,1.51-.7,4.25,4.25,0,0,0,1.49-.62,1.77,1.77,0,0,0,.59-1.44c0-.59-.07-1.22-.05-1.85a9.81,9.81,0,0,1,.2-1.79,8.21,8.21,0,0,1,1.13-2.8,2.14,2.14,0,0,1,1.73-1.11c.52,0,.74.24.72.26a1.88,1.88,0,0,0-.7,0,2,2,0,0,0-1.39,1.1,9.1,9.1,0,0,0-.94,2.68,9.46,9.46,0,0,0-.15,1.68c0,.58.09,1.2.06,1.88a2.33,2.33,0,0,1-.83,1.88,4.47,4.47,0,0,1-1.71.69,3.25,3.25,0,0,0-2.22,1.5A4.41,4.41,0,0,0,156.35,139.48Z" transform="translate(-0.02)" fill="#455a64"/>
    <path d="M202.31,118.75a1.6,1.6,0,0,1-1.62,0,4.67,4.67,0,0,1-1.49-1.27,6.23,6.23,0,0,0-1.82-1.61,5.44,5.44,0,0,0-5.92.39c-1,.7-1.83,1.69-3,2.51a5.27,5.27,0,0,1-2,.91,4.24,4.24,0,0,1-2.23-.21c-1.42-.51-2.54-1.38-3.76-1.82a10.13,10.13,0,0,0-3.69-.67,9.81,9.81,0,0,0-6,2,10.67,10.67,0,0,0-2.8,3.29c-.49.91-.67,1.47-.72,1.45s0-.15.08-.42a7.79,7.79,0,0,1,.42-1.14,10.26,10.26,0,0,1,2.75-3.52,10.12,10.12,0,0,1,6.21-2.27,10.26,10.26,0,0,1,3.91.67c1.32.48,2.46,1.35,3.75,1.8a3.59,3.59,0,0,0,1.92.19,4.57,4.57,0,0,0,1.73-.8c1.05-.75,1.93-1.74,3-2.48a5.65,5.65,0,0,1,3.43-1.13,6.09,6.09,0,0,1,3,.82,7,7,0,0,1,1.87,1.77,4.51,4.51,0,0,0,1.33,1.28A2.22,2.22,0,0,0,202.31,118.75Z" transform="translate(-0.02)" fill="#455a64"/>
    <path d="M186.54,157.89c.25,0,.53,1.62,2.17,2.57s3.39.47,3.45.7-.35.4-1.1.54a4.26,4.26,0,0,1-2.86-.48,3.74,3.74,0,0,1-1.72-2.18C186.3,158.35,186.42,157.9,186.54,157.89Z" transform="translate(-0.02)" fill="#263238"/>
    <path d="M290,314.14a15.28,15.28,0,0,0-11-3.66L272.26,332c4.95.22,9.89,2.77,14.67,1.46a10.47,10.47,0,0,0,7.29-8.6A12.45,12.45,0,0,0,290,314.14Z" transform="translate(-0.02)" fill="#ff725e"/>
    <path d="M279.1,310c0-.17.73-.31,2-.3a16.59,16.59,0,0,1,5.53,1.05,14.92,14.92,0,0,1,6.74,5.23,14,14,0,0,1,2.25,4.66,12.31,12.31,0,0,1,.16,5.63,11.49,11.49,0,0,1-2.45,5.13,10.72,10.72,0,0,1-4.36,3,15.67,15.67,0,0,1-8.5.55,25.85,25.85,0,0,1-5.3-1.65c-1.19-.51-1.82-.89-1.76-1.06s.78-.12,2,.09,3.07.6,5.27.8a15.26,15.26,0,0,0,7.35-1,8.76,8.76,0,0,0,3.3-2.44,9.31,9.31,0,0,0,1.86-4,11,11,0,0,0-1.83-8.4,14.48,14.48,0,0,0-5.5-4.92,25.27,25.27,0,0,0-4.93-1.72C279.78,310.38,279.08,310.17,279.1,310Z" transform="translate(-0.02)" fill="#f5f5f5"/>
    <path d="M216.47,390.54l-14.7,41.19,51.15,18.55c1.48-5-21.43-24.4-21.43-24.4l10.5-26Z" transform="translate(-0.02)" fill="#ff725e"/>
    <g opacity="0.6">
      <path d="M216.48,417.93a2.22,2.22,0,0,0-2.31,1.86,2.13,2.13,0,0,0,1.82,2.3,2.34,2.34,0,0,0,2.44-2c0-1.09-1.08-2.34-2.16-2.19" transform="translate(-0.02)" fill="#fff"/>
    </g>
    <path d="M201.77,431.73l1.49-4.15L251.84,447s1.92,1.81,1.08,3.32Z" transform="translate(-0.02)" fill="#fff"/>
    <path d="M232.42,425.92c-.1.25-1.39-.09-2.91.27s-2.56,1.17-2.75,1,.7-1.49,2.55-1.89S232.55,425.71,232.42,425.92Z" transform="translate(-0.02)" fill="#263238"/>
    <path d="M237,430.09c0,.26-1.27.29-2.5,1s-1.88,1.78-2.13,1.68.11-1.57,1.66-2.48S237,429.85,237,430.09Z" transform="translate(-0.02)" fill="#263238"/>
    <path d="M237.69,437.61c-.24,0-.14-1.4,1-2.54s2.5-1.25,2.53-1-.95.71-1.87,1.66S238,437.68,237.69,437.61Z" transform="translate(-0.02)" fill="#263238"/>
    <path d="M234.15,419.73c-.19.19-1.21-.57-2.65-1s-2.71-.37-2.76-.63,1.32-.77,3-.25S234.35,419.58,234.15,419.73Z" transform="translate(-0.02)" fill="#263238"/>
    <path d="M235.13,413.22a5.21,5.21,0,0,1-2.55-.94,11.64,11.64,0,0,1-2.38-1.8,13.39,13.39,0,0,1-1.19-1.31,3.37,3.37,0,0,1-.56-.88,1.15,1.15,0,0,1,.37-1.37,1.46,1.46,0,0,1,1.3-.18,4,4,0,0,1,.91.48,9.49,9.49,0,0,1,1.4,1.13,9.61,9.61,0,0,1,1.8,2.4,4.55,4.55,0,0,1,.75,2.63c-.14,0-.44-.95-1.31-2.3a11.14,11.14,0,0,0-1.82-2.11,10.55,10.55,0,0,0-1.31-1c-.49-.34-.95-.51-1.17-.32s-.11.11-.05.31a2.46,2.46,0,0,0,.41.65,14.24,14.24,0,0,0,1.07,1.26,15,15,0,0,0,2.13,1.85C234.25,412.67,235.19,413.09,235.13,413.22Z" transform="translate(-0.02)" fill="#263238"/>
    <path d="M234.68,413.48a4.37,4.37,0,0,1,.22-2.72,9.07,9.07,0,0,1,1.37-2.68,9.48,9.48,0,0,1,1.21-1.32,2.29,2.29,0,0,1,2.11-.7,1.29,1.29,0,0,1,.81,1.11,3.72,3.72,0,0,1-.08,1,6.2,6.2,0,0,1-2.68,4c-1.48,1-2.63.88-2.62.79a11.45,11.45,0,0,0,2.24-1.32,6.16,6.16,0,0,0,1.68-2.11,5.61,5.61,0,0,0,.49-1.5c.12-.57.07-1.09-.15-1.1a1.51,1.51,0,0,0-1.2.51,8.93,8.93,0,0,0-1.14,1.16,9.68,9.68,0,0,0-1.42,2.37C234.9,412.48,234.83,413.48,234.68,413.48Z" transform="translate(-0.02)" fill="#263238"/>
    <path d="M166.92,280.54c-7.76.18-15.12,1.27-20.47,6.9-7.09,7.47-15.85,18.1-16.35,25.47-.74,11,5.91,14.3,10.76,17a13.66,13.66,0,0,0,7,1.63l89.68-.68,2.81-15.19-58-14.3,2.41-21.83Z" transform="translate(-0.02)" fill="#263238"/>
    <path d="M184.81,279.53l28.21-1.3s48.74,2.71,59.13,12.24,9.1,20.36,5.63,30.75-34,76.88-34,76.88,2.48,4.23,1.09,8.45a11.14,11.14,0,0,1-8,7.58l-27.12-10s-3.68-1.3-1.08-4.77,4.33-4.11,4.33-4.11v-6.93s9.53-17.33,10.39-19.71,10-37.64,10-37.64l6.07-10.43s-14.67-6.9-27.39-11.9l-29.7-7.32Z" transform="translate(-0.02)" fill="#263238"/>
    <path d="M230.57,402.91a27.07,27.07,0,0,1-2.38-1.56,32.29,32.29,0,0,0-12.66-4.81,26.62,26.62,0,0,1-2.82-.42,11,11,0,0,1,2.86.05,27,27,0,0,1,12.83,4.88A11,11,0,0,1,230.57,402.91Z" transform="translate(-0.02)" fill="#455a64"/>
    <path d="M244.12,398.15a8.83,8.83,0,0,1-1.57-1.66c-.92-1.07-2.14-2.59-3.41-4.33s-2.37-3.35-3.12-4.54a10,10,0,0,1-1.12-2,10.26,10.26,0,0,1,1.42,1.79l3.24,4.44c1.21,1.64,2.32,3.12,3.28,4.41A11,11,0,0,1,244.12,398.15Z" transform="translate(-0.02)" fill="#455a64"/>
    <path d="M254,311.06c0,.08-1,.3-2.57.82a27,27,0,0,0-10.86,6.78,26.45,26.45,0,0,1-1.87,1.95,9.12,9.12,0,0,1,1.6-2.2,23,23,0,0,1,11-6.88A9.17,9.17,0,0,1,254,311.06Z" transform="translate(-0.02)" fill="#455a64"/>
    <path d="M226.32,358.14a2.36,2.36,0,0,1,.11-.59l.42-1.65,1.62-6L234,329.94c1.13-3.89,2.09-7.59,3.18-10.95a22.87,22.87,0,0,1,5.11-7.79,29.92,29.92,0,0,1,4.84-4c.63-.4,1.12-.7,1.47-.88a2.94,2.94,0,0,1,.53-.27s-.68.46-1.88,1.31a32.67,32.67,0,0,0-4.7,4.09,23,23,0,0,0-4.92,7.7c-1,3.31-2,7.06-3.13,10.93l-5.69,19.86-1.79,6c-.21.66-.37,1.2-.51,1.62A2,2,0,0,1,226.32,358.14Z" transform="translate(-0.02)" fill="#455a64"/>
    <path d="M201.37,307.35c-.15,0-.74-5.26-1.33-11.78s-1-11.82-.8-11.83.73,5.26,1.32,11.78S201.51,307.34,201.37,307.35Z" transform="translate(-0.02)" fill="#455a64"/>
    <path d="M154.41,321.48c-.08,0-.51-.81-1.4-2.06a20.65,20.65,0,0,0-4.09-4.31,21.15,21.15,0,0,0-5.17-2.93c-1.43-.56-2.36-.77-2.34-.86a8,8,0,0,1,2.46.51,17.77,17.77,0,0,1,9.45,7.38A7.67,7.67,0,0,1,154.41,321.48Z" transform="translate(-0.02)" fill="#455a64"/>
    <path d="M171.69,302.28c0,.08-1.24-.68-3.31-1.63A31.2,31.2,0,0,0,151,298.17c-2.25.32-3.62.72-3.64.63a3.39,3.39,0,0,1,.93-.36,21.76,21.76,0,0,1,2.65-.64,28.48,28.48,0,0,1,17.56,2.52,21.23,21.23,0,0,1,2.36,1.36A3.41,3.41,0,0,1,171.69,302.28Z" transform="translate(-0.02)" fill="#455a64"/>
    <path d="M239.25,315.64a2.85,2.85,0,0,1-.71-.12l-2-.43-7.3-1.61c-6.17-1.38-14.71-3.24-24.18-5.11S187,305,180.76,303.88l-7.39-1.27-2-.35a2.68,2.68,0,0,1-.69-.17c.24,0,.47,0,.71.06l2,.26c1.75.24,4.28.62,7.41,1.11,6.25,1,14.87,2.46,24.35,4.34s18,3.79,24.16,5.26c3.07.74,5.56,1.36,7.27,1.81l2,.52A3.93,3.93,0,0,1,239.25,315.64Z" transform="translate(-0.02)" fill="#455a64"/>
    <path d="M182.4,303.93a27.73,27.73,0,0,0-1.24-2.86,12.3,12.3,0,0,0-2-2.65A33.82,33.82,0,0,0,176,295.7a47.28,47.28,0,0,0-6.43-4,20.58,20.58,0,0,1-2.74-1.56,16.93,16.93,0,0,1,2.91,1.23,37.93,37.93,0,0,1,6.58,3.91,29.88,29.88,0,0,1,3.16,2.79,11.59,11.59,0,0,1,2,2.81,9.7,9.7,0,0,1,.81,2.2A2.44,2.44,0,0,1,182.4,303.93Z" transform="translate(-0.02)" fill="#455a64"/>
    <path d="M282.29,317.48c.11.12-1.39,1.63-2.56,3.94s-1.55,4.39-1.7,4.36a11.41,11.41,0,0,1,4.26-8.3Z" transform="translate(-0.02)" fill="#263238"/>
    <g opacity="0.3">
      <path d="M218.1,215l6.42,45.22.32.72A97,97,0,0,0,218.1,215Z" transform="translate(-0.02)"/>
    </g>
    <path d="M252.67,241,231.8,277.48l-51.43,1.12-.13,2.33,49.8-.37,1.58-.06,52.58.11,10.63-18.33,13.58-19.46a1.92,1.92,0,0,0-.51-2.67,2,2,0,0,0-1.08-.33l-52.49.2A1.93,1.93,0,0,0,252.67,241Z" transform="translate(-0.02)" fill="#e0e0e0"/>
    <path d="M294.83,262.31s2.7,2.48,2.28,4.58-.29,3.67-2.28,3.81a3,3,0,0,1-2.7,3.13s.61,3.3-3.23,3.87c0,0-1.18,3.53-3.6,2.67a20.43,20.43,0,0,1-4-1.85l-.71-1.28s-3.57-1.34-2.69-3.35c.54-1.22,2.38-1.54,2.38-1.54a3.44,3.44,0,0,1,.23-3.12c.85-1.15,3.63-.2,3.63-.2a4,4,0,0,1,.88-2.72c1-1.13,5.38,1.92,5.38,1.92l2.41-2.88Z" transform="translate(-0.02)" fill="#ffbe9d"/>
    <path d="M288.9,277.7a48.52,48.52,0,0,1-8.6-5.35,25,25,0,0,1,4.44,2.46A25.34,25.34,0,0,1,288.9,277.7Z" transform="translate(-0.02)" fill="#eb996e"/>
    <path d="M292.13,273.83a20.83,20.83,0,0,1-4.12-2.18,21.08,21.08,0,0,1-3.85-2.62,20.55,20.55,0,0,1,4.12,2.18A21.08,21.08,0,0,1,292.13,273.83Z" transform="translate(-0.02)" fill="#eb996e"/>
    <path d="M287.73,266.59c.08-.15,1.73.72,3.65,1.94a32.92,32.92,0,0,1,3.43,2.28c-.07.17-1.79-.61-3.71-1.84A19.73,19.73,0,0,1,287.73,266.59Z" transform="translate(-0.02)" fill="#eb996e"/>
    <path d="M308.41,241.22h-3.83l-10.44.08-34.45.08h-2.51a2.07,2.07,0,0,0-1.91.9c-.8,1.43-1.58,2.83-2.34,4.22l-4.44,8L241,268c-2.14,3.82-3.89,6.92-5.12,9.11-.59,1-1.07,1.86-1.41,2.46l-.38.63-.14.21a.53.53,0,0,1,.09-.24l.34-.66,1.33-2.5,5-9.19,7.44-13.59,4.4-8,2.35-4.25a2.61,2.61,0,0,1,2.35-1.14h2.51l34.45.07,10.44.09,2.84.05h.74A.74.74,0,0,1,308.41,241.22Z" transform="translate(-0.02)" fill="#263238"/>
    <path d="M271.41,259.57a2.22,2.22,0,1,0,3.31-.39A2.37,2.37,0,0,0,271.41,259.57Z" transform="translate(-0.02)" fill="#fff"/>
    <g opacity="0.3">
      <path d="M125.41,245.48c-.44.18-1,.48-1,1a.86.86,0,0,0,.73.78,9.4,9.4,0,0,0,2.14-.57c5.41-1.19,9.86-.05,15,2l.17-.17C140.46,244.09,131.23,243.11,125.41,245.48Z" transform="translate(-0.02)"/>
    </g>
  </g>
  <g id="Floor">
    <path d="M404,448.48c0,.14-90.45.26-202,.26s-202-.16-202-.26,90.43-.26,202-.26S404,448.29,404,448.48Z" transform="translate(-0.02)" fill="#263238"/>
  </g>
  <g id="Ribbon">
    <path d="M97.44,129.69c.17.17,33.38-11.24,33.38-11.24L118,89.15,88.49,100.48l16.26,9.34Z" transform="translate(-0.02)" fill="#455a64"/>
    <path d="M113,98V58.08s45.81-8.38,78.82-7.88,67,5.91,67,5.91v38.3S155.38,85.17,113,98Z" transform="translate(-0.02)" fill="#455a64"/>
    <path d="M112.78,98l18,20.61V94.41S115.73,96.21,112.78,98Z" transform="translate(-0.02)" fill="#263238"/>
    <path d="M113,58.07c.15,0,.21,9,.15,20s-.24,20-.38,20-.21-8.94-.15-20S112.87,58.07,113,58.07Z" transform="translate(-0.02)" fill="#263238"/>
    <path d="M274.34,126.63c-.17.17-33.38-11.24-33.38-11.24l12.77-29.31,29.56,11.31L267,106.73Z" transform="translate(-0.02)" fill="#455a64"/>
    <path d="M259,95l-18,20.61V93.1A132.46,132.46,0,0,1,259,95Z" transform="translate(-0.02)" fill="#263238"/>
    <path d="M258.82,56.11c.14,0,.3,8.69.35,19.42S259.17,95,259,95s-.3-8.69-.35-19.42S258.67,56.11,258.82,56.11Z" transform="translate(-0.02)" fill="#263238"/>
    <path d="M138.85,75.57a5.86,5.86,0,0,1,9.57-5L147,72.25a3.42,3.42,0,1,0,.6,4.27l1.76,1.23a5.85,5.85,0,0,1-10.56-2.18Z" transform="translate(-0.02)" fill="#fff"/>
    <path d="M149.76,74.07a5.84,5.84,0,1,1,6.7,4.84l-.34,0a5.52,5.52,0,0,1-6.32-4.58C149.78,74.27,149.77,74.17,149.76,74.07Zm9.11-.94a3.33,3.33,0,1,0-3,3.73,3.25,3.25,0,0,0,3-3.46Z" transform="translate(-0.02)" fill="#fff"/>
    <path d="M173.33,77.4,172.9,71l-2.79,5.46-1.1.07-3.45-4.92.41,6.24-2.31.15L163,67.39l2-.13,4.4,6.35,3.49-6.85,2-.13.72,10.62Z" transform="translate(-0.02)" fill="#fff"/>
    <path d="M187.1,70.12c.06,2.38-1.68,3.9-4.52,4l-2.15.06.09,2.94-2.47.07-.3-10.71,4.61-.13C185.21,66.31,187,67.74,187.1,70.12Zm-2.5.07c0-1.17-.81-1.83-2.32-1.79l-2,.06.11,3.7,2-.06C183.89,72.06,184.63,71.35,184.6,70.19Z" transform="translate(-0.02)" fill="#fff"/>
    <path d="M189,66.25h2.46v8.64h5.34v2H189Z" transform="translate(-0.02)" fill="#fff"/>
    <path d="M206.37,75.2v2L198.12,77l.31-10.65,8,.24-.06,2-5.6-.17-.06,2.32,4.94.14-.06,1.92-4.94-.15-.07,2.47Z" transform="translate(-0.02)" fill="#fff"/>
    <path d="M210.93,68.78l-3.4-.2.12-2,9.26.56-.12,2-3.4-.21-.52,8.63-2.46-.15Z" transform="translate(-0.02)" fill="#fff"/>
    <path d="M225.88,76.66l-.18,2-8.22-.76,1-10.6,8,.74-.18,2-5.58-.56-.21,2.31,4.92.45-.17,1.91-4.93-.45-.22,2.45Z" transform="translate(-0.02)" fill="#fff"/>
    <path d="M229,68.27l4.79.64c3.45.46,5.54,2.85,5.12,6s-3.08,5-6.53,4.5l-4.79-.64Zm3.53,9.17a3.3,3.3,0,0,0,1-6.52l-.18,0-2.23-.3-.87,6.54Z" transform="translate(-0.02)" fill="#fff"/>
  </g>
  <g id="Confetti">
    <polygon points="279.29 59.74 281.91 62.81 289.29 59.74 287.13 56.51 279.29 59.74" fill="#455a64"/>
    <path d="M275.93,45.13a3.84,3.84,0,1,1-3.84-3.84h0A3.85,3.85,0,0,1,275.93,45.13Z" transform="translate(-0.02)" fill="#ff725e"/>
    <path d="M189.91,102.41a1.92,1.92,0,1,1-1.91-1.93h0A1.92,1.92,0,0,1,189.91,102.41Z" transform="translate(-0.02)" fill="#ff725e"/>
    <path d="M100.46,73.55A1.46,1.46,0,1,1,99,72.09h0A1.46,1.46,0,0,1,100.46,73.55Z" transform="translate(-0.02)" fill="#ff725e"/>
    <polygon points="95.02 57.48 99.32 57.74 101.37 49.29 97.35 49.45 95.02 57.48" fill="#455a64"/>
    <polygon points="229.42 125.01 230.87 129.07 239.45 127.64 237.72 124 229.42 125.01" fill="#ff725e"/>
    <polygon points="142.64 101.58 139.99 104.99 145.8 111.45 147.94 108.05 142.64 101.58" fill="#455a64"/>
  </g>
  <g id="Stars">
    <polygon points="132.37 21.71 142.52 32.07 156.82 26.66 157.38 30.21 151.19 42.89 156.9 52.35 156.42 55.17 142.59 52.84 134.42 61.82 132.49 60.36 130.8 48.95 117.9 42.23 117.34 39.63 130.32 36.07 132.37 21.71" fill="#ff725e"/>
    <g opacity="0.3">
      <polygon points="132.37 21.71 142.52 32.07 156.82 26.66 157.38 30.21 151.19 42.89 156.9 52.35 156.42 55.17 142.59 52.84 134.42 61.82 132.49 60.36 130.8 48.95 117.9 42.23 117.34 39.63 130.32 36.07 132.37 21.71"/>
    </g>
    <polygon points="132.37 18.8 142.52 29.16 156.82 26.66 150.11 39.53 156.9 52.35 142.59 49.94 132.49 60.36 130.36 46.01 117.34 39.63 130.32 33.17 132.37 18.8" fill="#ff725e"/>
    <polygon points="237.62 21.71 227.46 32.07 213.17 26.66 212.6 30.21 218.79 42.89 213.09 52.35 213.56 55.17 227.39 52.84 235.57 61.82 237.49 60.36 239.18 48.95 252.08 42.23 252.65 39.63 239.66 36.07 237.62 21.71" fill="#ff725e"/>
    <g opacity="0.3">
      <polygon points="237.62 21.71 227.46 32.07 213.17 26.66 212.6 30.21 218.79 42.89 213.09 52.35 213.56 55.17 227.39 52.84 235.57 61.82 237.49 60.36 239.18 48.95 252.08 42.23 252.65 39.63 239.66 36.07 237.62 21.71"/>
    </g>
    <polygon points="237.62 18.8 227.46 29.16 213.17 26.66 219.88 39.53 213.09 52.35 227.39 49.94 237.49 60.36 239.62 46.01 252.65 39.63 239.66 33.17 237.62 18.8" fill="#ff725e"/>
    <polygon points="184.66 3.54 193.11 20.05 212.6 18.9 211.94 23.44 199.56 36.55 202.92 50.27 201.26 53.53 185.27 45.42 171.88 53.26 170.09 50.75 172.37 36.18 159.19 23.07 159.49 19.68 176.7 20.29 184.66 3.54" fill="#ff725e"/>
    <g opacity="0.3">
      <polygon points="184.66 3.54 193.11 20.05 212.6 18.9 211.94 23.44 199.56 36.55 202.92 50.27 201.26 53.53 185.27 45.42 171.88 53.26 170.09 50.75 172.37 36.18 159.19 23.07 159.49 19.68 176.7 20.29 184.66 3.54"/>
    </g>
    <polygon points="185.76 0 194.21 16.51 212.6 18.9 199.51 32.04 202.92 50.27 186.38 41.88 170.09 50.75 172.96 32.43 159.49 19.68 177.8 16.75 185.76 0" fill="#ff725e"/>
  </g>
  <g id="Speech_Bubble" data-name="Speech Bubble">
    <path d="M219.45,148.11l14.12,1.56a33.1,33.1,0,1,1-5,10.77h0Z" transform="translate(-0.02)" fill="#fafafa"/>
    <path d="M219.45,148.11c.55.74,3.41,4.52,9.25,12.27h-.21a.12.12,0,0,1,.16-.06h0a.13.13,0,0,1,.06.14,32.84,32.84,0,0,0,.22,17.07,29,29,0,0,0,1.83,4.86c.4.8.78,1.62,1.21,2.43l1.49,2.37a33.11,33.11,0,0,0,20.14,13.53,32.57,32.57,0,0,0,13.76.06,33.3,33.3,0,0,0,13.17-6.1A32,32,0,0,0,290.1,183a32.64,32.64,0,0,0,3.28-15.08,33.42,33.42,0,0,0-3.7-14.32,32.14,32.14,0,0,0-8.94-10.78A33.18,33.18,0,0,0,257.09,136a35.89,35.89,0,0,0-10.35,2.86,33,33,0,0,0-13.07,10.86.1.1,0,0,1-.11,0l-14.11-1.68,14.14,1.43-.12.06a32.81,32.81,0,0,1,13.12-11,35.42,35.42,0,0,1,10.43-3,33.54,33.54,0,0,1,24,6.78,32.55,32.55,0,0,1,9.09,10.93,33.16,33.16,0,0,1,.45,29.86,32.56,32.56,0,0,1-9.71,11.91,33.77,33.77,0,0,1-13.38,6.18,33.41,33.41,0,0,1-34.33-13.8l-1.5-2.4c-.43-.82-.81-1.66-1.22-2.47a29.63,29.63,0,0,1-1.82-4.92,32.91,32.91,0,0,1-.12-17.23l.24.09h0a.14.14,0,0,1-.18,0h0Z" transform="translate(-0.02)" fill="#263238"/>
    <path d="M248.42,156.92a3.53,3.53,0,0,1,0,.46v1.28c0,1.16,0,2.77.06,4.81,0,4.15.07,10,.12,17l-.23-.23H271.9c.06-.06-.49.49-.26.25h0V157l.22.23-17-.12-4.81,0H250l4.75-.06,17.13-.11h.23v23.63h0c.24-.23-.31.33-.26.27H248.05v-.27c0-7.06.08-12.95.11-17.13,0-2,0-3.62.06-4.76v-1.24A1.69,1.69,0,0,1,248.42,156.92Z" transform="translate(-0.02)" fill="#263238"/>
    <path d="M269.41,160.81c.34.27-2.82,4.83-7.07,10.19-.84,1.07-1.67,2.09-2.44,3l-.5.61-.56-.51c-3.68-3.31-6.17-5.85-5.95-6.11s3.11,1.84,6.92,5l-1.07.1c.73-1,1.53-2,2.38-3.06C265.36,164.67,269.08,160.55,269.41,160.81Z" transform="translate(-0.02)" fill="#ff725e"/>
  </g>
</svg>
