<svg id="Layer_1" data-name="Layer 1" xmlns="http://www.w3.org/2000/svg" xmlns:xlink="http://www.w3.org/1999/xlink" viewBox="0 0 2798 2800.04">
  <defs>
    <linearGradient id="linear-gradient" x1="3605.99" y1="2360.36" x2="1131.55" y2="-712.74" gradientTransform="translate(0 1710)" gradientUnits="userSpaceOnUse">
      <stop offset="0" stop-color="#dae3fe"/>
      <stop offset="1" stop-color="#e9effd"/>
    </linearGradient>
    <linearGradient id="linear-gradient-2" x1="456" y1="274.36" x2="3254" y2="274.36" gradientTransform="translate(-456 1255.07)" gradientUnits="userSpaceOnUse">
      <stop offset="0" stop-color="#09005d"/>
      <stop offset="1" stop-color="#1a0f91"/>
    </linearGradient>
    <linearGradient id="linear-gradient-3" x1="2857.46" y1="-940.63" x2="2660.28" y2="467.3" gradientTransform="translate(-456 1255.07)" gradientUnits="userSpaceOnUse">
      <stop offset="0" stop-color="#4f52ff"/>
      <stop offset="1" stop-color="#4042e2"/>
    </linearGradient>
    <linearGradient id="linear-gradient-4" x1="2715.6" y1="-199.22" x2="3044.18" y2="-199.22" gradientTransform="translate(-456 1255.07)" xlink:href="#linear-gradient"/>
    <linearGradient id="linear-gradient-5" x1="2715.6" y1="-119.51" x2="3044.18" y2="-119.51" gradientTransform="translate(-456 1255.07)" xlink:href="#linear-gradient"/>
    <linearGradient id="linear-gradient-6" x1="2715.6" y1="-43.05" x2="3044.18" y2="-43.05" gradientTransform="translate(-456 1255.07)" xlink:href="#linear-gradient"/>
    <linearGradient id="linear-gradient-7" x1="2443.84" y1="-213.69" x2="2582.3" y2="-213.69" gradientTransform="translate(-456 1255.07)" xlink:href="#linear-gradient"/>
    <linearGradient id="linear-gradient-8" x1="2670.58" y1="-497.99" x2="2325.51" y2="90.97" gradientTransform="translate(0 1710)" gradientUnits="userSpaceOnUse">
      <stop offset="0" stop-color="#e1473d"/>
      <stop offset="1" stop-color="#e9605a"/>
    </linearGradient>
    <linearGradient id="linear-gradient-9" x1="1963.52" y1="-1068.92" x2="1766.34" y2="339.01" xlink:href="#linear-gradient-3"/>
    <linearGradient id="linear-gradient-10" x1="1804.94" y1="-208.25" x2="2133.52" y2="-208.25" gradientTransform="translate(-456 1255.07)" xlink:href="#linear-gradient"/>
    <linearGradient id="linear-gradient-11" x1="1804.94" y1="-128.54" x2="2133.52" y2="-128.54" gradientTransform="translate(-456 1255.07)" xlink:href="#linear-gradient"/>
    <linearGradient id="linear-gradient-12" x1="1804.94" y1="-52.08" x2="2133.52" y2="-52.08" gradientTransform="translate(-456 1255.07)" xlink:href="#linear-gradient"/>
    <linearGradient id="linear-gradient-13" x1="1533.19" y1="-222.71" x2="1671.65" y2="-222.71" gradientTransform="translate(-456 1255.07)" xlink:href="#linear-gradient"/>
    <linearGradient id="linear-gradient-14" x1="1910.57" y1="5.01" x2="1590.5" y2="1394.12" xlink:href="#linear-gradient-3"/>
    <linearGradient id="linear-gradient-15" x1="1807.03" y1="260.46" x2="2135.61" y2="260.46" gradientTransform="translate(-456 1255.07)" xlink:href="#linear-gradient"/>
    <linearGradient id="linear-gradient-16" x1="1807.03" y1="340.17" x2="2135.61" y2="340.17" gradientTransform="translate(-456 1255.07)" xlink:href="#linear-gradient"/>
    <linearGradient id="linear-gradient-17" x1="1807.03" y1="416.63" x2="2135.61" y2="416.63" gradientTransform="translate(-456 1255.07)" xlink:href="#linear-gradient"/>
    <linearGradient id="linear-gradient-18" x1="1066.56" y1="-1197.26" x2="869.38" y2="210.67" xlink:href="#linear-gradient-3"/>
    <linearGradient id="linear-gradient-19" x1="893.36" y1="-232.18" x2="1221.94" y2="-232.18" gradientTransform="translate(-456 1255.07)" xlink:href="#linear-gradient"/>
    <linearGradient id="linear-gradient-20" x1="893.36" y1="-152.47" x2="1221.94" y2="-152.47" gradientTransform="translate(-456 1255.07)" xlink:href="#linear-gradient"/>
    <linearGradient id="linear-gradient-21" x1="893.36" y1="-76" x2="1221.94" y2="-76" gradientTransform="translate(-456 1255.07)" xlink:href="#linear-gradient"/>
    <linearGradient id="linear-gradient-22" x1="621.61" y1="-246.65" x2="760.07" y2="-246.65" gradientTransform="translate(-456 1255.07)" xlink:href="#linear-gradient"/>
    <linearGradient id="linear-gradient-23" x1="2805.48" y1="143.29" x2="2608.52" y2="786.93" xlink:href="#linear-gradient-3"/>
    <linearGradient id="linear-gradient-24" x1="2715.6" y1="272.86" x2="3044.18" y2="272.86" gradientTransform="translate(-456 1255.07)" xlink:href="#linear-gradient"/>
    <linearGradient id="linear-gradient-25" x1="2715.6" y1="352.57" x2="3044.18" y2="352.57" gradientTransform="translate(-456 1255.07)" xlink:href="#linear-gradient"/>
    <linearGradient id="linear-gradient-26" x1="2715.6" y1="429.03" x2="3044.18" y2="429.03" gradientTransform="translate(-456 1255.07)" xlink:href="#linear-gradient"/>
    <linearGradient id="linear-gradient-27" x1="2443.84" y1="258.39" x2="2582.3" y2="258.39" gradientTransform="translate(-456 1255.07)" xlink:href="#linear-gradient"/>
    <linearGradient id="linear-gradient-28" x1="2836.41" y1="35.68" x2="2953.8" y2="979.96" xlink:href="#linear-gradient-8"/>
    <linearGradient id="linear-gradient-29" x1="1071.55" y1="264.12" x2="1198.73" y2="264.12" gradientTransform="matrix(-1, 0.05, 0.05, 1, 3846.92, 1841.8)" gradientUnits="userSpaceOnUse">
      <stop offset="0" stop-color="#febbba"/>
      <stop offset="1" stop-color="#ff928e"/>
    </linearGradient>
    <linearGradient id="linear-gradient-30" x1="1065.73" y1="1364.66" x2="1150.55" y2="1364.66" gradientTransform="matrix(-0.99, -0.11, -0.11, 0.99, 4290.1, 1977.6)" xlink:href="#linear-gradient-2"/>
    <linearGradient id="linear-gradient-31" x1="1074.33" y1="1325.04" x2="1108.73" y2="1325.04" gradientTransform="matrix(-0.99, -0.11, -0.11, 0.99, 4290.1, 1977.6)" xlink:href="#linear-gradient-29"/>
    <linearGradient id="linear-gradient-32" x1="1193.39" y1="1048.38" x2="1326.42" y2="1048.38" gradientTransform="matrix(-1, -0.03, -0.03, 1, 4130.1, 2180.02)" xlink:href="#linear-gradient-2"/>
    <linearGradient id="linear-gradient-33" x1="1209.59" y1="1060.59" x2="1243.8" y2="1060.59" gradientTransform="matrix(-1, -0.04, -0.04, 1, 4175.26, 2131.34)" xlink:href="#linear-gradient-29"/>
    <linearGradient id="linear-gradient-34" x1="3239.11" y1="647.95" x2="2932.81" y2="1454.53" gradientTransform="translate(0 1710)" xlink:href="#linear-gradient-3"/>
    <linearGradient id="linear-gradient-35" x1="3436.9" y1="85.03" x2="3200.92" y2="391.8" gradientTransform="translate(0 1710)" gradientUnits="userSpaceOnUse">
      <stop offset="0" stop-color="#ff928e"/>
      <stop offset="1" stop-color="#fe7062"/>
    </linearGradient>
    <linearGradient id="linear-gradient-36" x1="1765.77" y1="320.08" x2="1491.05" y2="661.86" gradientTransform="matrix(-0.99, -0.11, -0.11, 0.99, 4290.1, 1977.6)" xlink:href="#linear-gradient-29"/>
    <linearGradient id="linear-gradient-37" x1="1817.9" y1="361.97" x2="1543.17" y2="703.75" gradientTransform="matrix(-0.99, -0.11, -0.11, 0.99, 4290.1, 1977.6)" xlink:href="#linear-gradient-29"/>
    <linearGradient id="linear-gradient-38" x1="1453.22" y1="111.42" x2="1187.16" y2="600.28" gradientTransform="matrix(-0.99, -0.11, -0.11, 0.99, 4290.1, 1977.6)" xlink:href="#linear-gradient-29"/>
    <linearGradient id="linear-gradient-39" x1="10316.27" y1="645.07" x2="10170.57" y2="756.56" gradientTransform="matrix(-0.99, -0.15, -0.15, 0.99, 13181.57, 2955.02)" xlink:href="#linear-gradient-29"/>
    <linearGradient id="linear-gradient-40" x1="10201.31" y1="565.91" x2="10337.02" y2="740.64" gradientTransform="matrix(-0.99, -0.15, -0.15, 0.99, 13181.57, 2955.02)" xlink:href="#linear-gradient-2"/>
    <linearGradient id="linear-gradient-41" x1="10298.18" y1="621.42" x2="10152.47" y2="732.9" gradientTransform="matrix(-0.99, -0.15, -0.15, 0.99, 13181.57, 2955.02)" xlink:href="#linear-gradient-29"/>
    <linearGradient id="linear-gradient-42" x1="2656" y1="152.69" x2="2268.02" y2="1163.48" xlink:href="#linear-gradient-8"/>
    <linearGradient id="linear-gradient-43" x1="2302.69" y1="1684.38" x2="2911.03" y2="913.2" gradientTransform="translate(-378.93 1728.53) rotate(-7.48)" xlink:href="#linear-gradient-3"/>
    <linearGradient id="linear-gradient-44" x1="1909.47" y1="-792.44" x2="1839.78" y2="-520.63" gradientTransform="translate(-456 1255.07)" xlink:href="#linear-gradient-35"/>
    <linearGradient id="linear-gradient-45" x1="1660.28" y1="-229.53" x2="1680.56" y2="1291.88" gradientTransform="translate(-456 1255.07)" xlink:href="#linear-gradient-35"/>
    <linearGradient id="linear-gradient-46" x1="3927.91" y1="168.76" x2="4161.53" y2="696.25" gradientTransform="matrix(-1, 0, 0, 1, 5198.93, 1710)" xlink:href="#linear-gradient-29"/>
    <linearGradient id="linear-gradient-47" x1="4113.36" y1="227.57" x2="4265.11" y2="489.15" gradientTransform="matrix(-1, 0, 0, 1, 5198.93, 1710)" xlink:href="#linear-gradient-2"/>
    <linearGradient id="linear-gradient-48" x1="3901.3" y1="189" x2="4070.32" y2="570.63" gradientTransform="matrix(-1, 0, 0, 1, 5198.93, 1710)" xlink:href="#linear-gradient-29"/>
    <linearGradient id="linear-gradient-49" x1="4418.33" y1="1495.38" x2="4489.63" y2="1495.38" gradientTransform="matrix(-1, 0, 0, 1, 5198.93, 1710)" xlink:href="#linear-gradient-2"/>
    <linearGradient id="linear-gradient-50" x1="4117.76" y1="1756.13" x2="4220.12" y2="559.8" gradientTransform="matrix(-1, 0, 0, 1, 5198.93, 1710)" xlink:href="#linear-gradient-29"/>
    <linearGradient id="linear-gradient-51" x1="4165.75" y1="1462.69" x2="4280.8" y2="1462.69" gradientTransform="matrix(-1, 0, 0, 1, 5198.93, 1710)" xlink:href="#linear-gradient-2"/>
    <linearGradient id="linear-gradient-52" x1="4323.69" y1="1773.93" x2="4426.08" y2="577.29" gradientTransform="matrix(-1, 0, 0, 1, 5198.93, 1710)" xlink:href="#linear-gradient-29"/>
    <linearGradient id="linear-gradient-53" x1="1943" y1="-225.36" x2="1720.51" y2="-16.35" xlink:href="#linear-gradient-35"/>
    <linearGradient id="linear-gradient-54" x1="841.5" y1="-155.49" x2="921.72" y2="368.59" gradientTransform="translate(0 1710)" xlink:href="#linear-gradient-3"/>
    <linearGradient id="linear-gradient-55" x1="4106.61" y1="576.92" x2="4125.83" y2="436.25" gradientTransform="matrix(-1, 0, 0, 1, 5198.93, 1710)" xlink:href="#linear-gradient-29"/>
    <linearGradient id="linear-gradient-56" x1="4057.99" y1="395.54" x2="4225.76" y2="96.98" gradientTransform="matrix(-1, 0, 0, 1, 5198.93, 1710)" xlink:href="#linear-gradient-29"/>
    <linearGradient id="linear-gradient-57" x1="4125.25" y1="220.67" x2="4277.01" y2="482.25" gradientTransform="matrix(-1, 0, 0, 1, 5198.93, 1710)" xlink:href="#linear-gradient-2"/>
    <linearGradient id="linear-gradient-58" x1="4093.72" y1="415.61" x2="4261.49" y2="117.04" gradientTransform="matrix(-1, 0, 0, 1, 5198.93, 1710)" xlink:href="#linear-gradient-29"/>
    <linearGradient id="linear-gradient-59" x1="940.44" y1="654.36" x2="1518" y2="258.91" gradientTransform="translate(0 1710)" xlink:href="#linear-gradient-29"/>
    <linearGradient id="linear-gradient-60" x1="949.58" y1="667.71" x2="1527.14" y2="272.26" gradientTransform="translate(0 1710)" xlink:href="#linear-gradient-29"/>
  </defs>
  <g id="Illustration">
    <path d="M2925.24,2858.46c-56.84,59.84-110.62,98.42-153.11,128.91-499.45,358.36-1090.44,253.9-1216,228.39-185.48-37.67-544-110.49-803.2-415.3C360.74,2339.3,421.81,1612.75,726,1133.15c55.63-87.73,349.54-574.64,946.89-652.72,361.5-47.26,782.91,48.05,1088.11,303.72C3401.55,1320.83,3356,2405,2925.24,2858.46Z" transform="translate(-456 -454.93)" fill="url(#linear-gradient)"/>
    <g opacity="0.3">
      <path d="M1347.7,775.26a10.11,10.11,0,0,1-12.24-7.39h0c-2.6-10.54-5.69-21.12-9.19-31.46a10.11,10.11,0,0,1,6.15-12.77l.18-.06a10.11,10.11,0,0,1,12.83,6.31h0c3.69,10.89,7,22,9.68,33.13a10.1,10.1,0,0,1-6.39,11.93A8.6,8.6,0,0,1,1347.7,775.26Zm-41.94-88c-4.88-9.75-10.22-19.4-15.88-28.66a10.13,10.13,0,0,1,17.27-10.6h0c6,9.75,11.58,19.9,16.71,30.16a10.12,10.12,0,0,1-4.53,13.58h0a8.87,8.87,0,0,1-1.1.47,10.1,10.1,0,0,1-12.47-5Zm-46.72-72c-6.91-8.41-14.27-16.61-21.88-24.4a10.12,10.12,0,1,1,14.06-14.56l.41.42c8,8.19,15.77,16.84,23,25.69a10.12,10.12,0,0,1-1.39,14.24,9.91,9.91,0,0,1-3,1.7,10.12,10.12,0,0,1-11.24-3.14Zm-61.67-59.78c-8.62-6.66-17.63-13-26.78-18.9a10.12,10.12,0,1,1,11-17c9.63,6.2,19.12,12.89,28.2,19.89a10.12,10.12,0,0,1,1.82,14.2h0A10,10,0,0,1,1207,557a10.12,10.12,0,0,1-9.67-1.57Zm-73.44-44.55c-9.86-4.57-20.06-8.78-30.31-12.5a10.12,10.12,0,0,1,6.1-19.3h0c.27.09.55.19.82.3,10.78,3.92,21.51,8.35,31.89,13.15a10.12,10.12,0,0,1-8.5,18.37h0Zm-81.47-27.2c-10.64-2.27-21.51-4.11-32.31-5.48a10.12,10.12,0,0,1,2.31-20.11h.22c11.36,1.44,22.81,3.38,34,5.77a10.12,10.12,0,0,1,1.3,19.42,9.89,9.89,0,0,1-5.52.32ZM680.31,583.87a10.12,10.12,0,0,1,.19-14.31c8.2-8,16.86-15.72,25.74-23a10.12,10.12,0,1,1,13.3,15.26h0l-.48.39c-8.43,6.91-16.65,14.25-24.44,21.84a10,10,0,0,1-3.62,2.27A10.11,10.11,0,0,1,680.31,583.87ZM957,475.23c-10.87.15-21.88.78-32.7,1.86A10.13,10.13,0,1,1,921.64,457c.22,0,.44-.06.66-.07,11.39-1.14,23-1.8,34.43-2a10.12,10.12,0,0,1,3.57,19.64A9.79,9.79,0,0,1,957,475.23ZM748.6,528.07a10.11,10.11,0,0,1,3.4-13.89h0c9.78-5.95,20-11.56,30.21-16.67a10.12,10.12,0,1,1,9.51,17.87l-.51.25c-9.76,4.86-19.42,10.18-28.72,15.84a9.59,9.59,0,0,1-1.83.87A10.11,10.11,0,0,1,748.6,528.07Zm123.29-42c-10.56,2.58-21.15,5.65-31.47,9.13a10.12,10.12,0,0,1-6.67-19.11h0L834,476c10.87-3.66,22-6.89,33.13-9.61A10.12,10.12,0,0,1,873,485.74a6.77,6.77,0,0,1-1.08.34Z" transform="translate(-456 -454.93)" fill="#91b3fa"/>
      <path d="M644.8,640.32a10.1,10.1,0,0,0,4.81-3.66c3-4.26,6.18-8.52,9.39-12.67a10.12,10.12,0,1,0-15.62-12.88c-.13.17-.26.33-.38.5-3.38,4.37-6.7,8.85-9.88,13.33a10.12,10.12,0,0,0,11.69,15.38Z" transform="translate(-456 -454.93)" fill="#91b3fa"/>
    </g>
    <g opacity="0.3">
      <path d="M578.64,941.63a10.13,10.13,0,0,0,6.5-11.4c-1-5.12-1.85-10.35-2.61-15.55a10.12,10.12,0,0,0-20.15,1.94h0a4.83,4.83,0,0,0,.15,1c.8,5.47,1.72,11,2.74,16.38a10.13,10.13,0,0,0,11.83,8.06A10.35,10.35,0,0,0,578.64,941.63Z" transform="translate(-456 -454.93)" fill="#91b3fa"/>
      <path d="M1080.23,1245.86a10.12,10.12,0,0,1-6.56-19.15l.22-.07.42-.13c10.17-3.11,20.37-6.7,30.43-10.72a10.13,10.13,0,0,1,7.5,18.81q-6.54,2.6-13.11,5C1092.88,1241.82,1086.52,1243.94,1080.23,1245.86Zm67.94-38.94a10.13,10.13,0,0,1,3.82-13.79c9.33-5.28,18.55-11,27.38-17.05a10.12,10.12,0,0,1,11.82,16.43c-.13.1-.27.19-.41.28-9.3,6.35-19,12.39-28.82,18a10.12,10.12,0,0,1-13.79-3.82Zm-121.65,51.42c-11.11,1.79-22.46,3.13-33.72,4a10.12,10.12,0,0,1-1.52-20.18c10.7-.8,21.47-2.08,32-3.78a10.12,10.12,0,0,1,5,19.51,10.56,10.56,0,0,1-1.76.45Zm193.28-100.4a10.13,10.13,0,0,1,.7-14.3c7.94-7.19,15.66-14.81,23-22.65a10.12,10.12,0,0,1,14.81,13.79c-7.68,8.25-15.81,16.28-24.17,23.85A10.24,10.24,0,0,1,1219.8,1157.94ZM937.7,1262.67c-11.22-.7-22.58-1.89-33.75-3.53a10.12,10.12,0,1,1,1.81-20.16l.19,0a6,6,0,0,1,1,.14c10.61,1.56,21.4,2.69,32.06,3.35a10.11,10.11,0,1,1-1.31,20.18Zm-87.61-15.26c-10.83-3.14-21.65-6.78-32.17-10.81a10.11,10.11,0,0,1,7.24-18.89c10,3.82,20.28,7.28,30.57,10.27a10.12,10.12,0,1,1-5.1,19.59Zm-82.2-34c-9.9-5.43-19.67-11.34-29.06-17.56a10.12,10.12,0,0,1,10.35-17.39,8.92,8.92,0,0,1,.82.54c8.91,5.91,18.2,11.52,27.6,16.68a10.12,10.12,0,1,1-9.73,17.75h0Zm-72.84-51.12c-8.46-7.46-16.71-15.37-24.51-23.51a10.12,10.12,0,0,1,14.62-14c7.4,7.73,15.23,15.24,23.27,22.32a10.12,10.12,0,0,1-13,15.48l-.33-.3Zm-59.85-65.9c-6.6-9.12-12.9-18.64-18.71-28.31a10.12,10.12,0,0,1,17-10.94c.11.17.21.33.3.5,5.53,9.19,11.51,18.23,17.78,26.9a10.12,10.12,0,0,1-16.09,12.27l-.28-.42ZM591.32,1019c-3.28-7.62-6.37-15.43-9.18-23.22-1-2.83-2-5.65-2.95-8.48a10,10,0,0,1,6.14-12.74h0l.22-.07a10.12,10.12,0,0,1,12.82,6.37h0c.9,2.69,1.84,5.38,2.8,8.06,2.67,7.4,5.6,14.83,8.72,22.07a10.09,10.09,0,0,1-5.25,13.28h0l-.59.23a10.12,10.12,0,0,1-12.71-5.5Z" transform="translate(-456 -454.93)" fill="#91b3fa"/>
      <path d="M1288.3,1095.42a10.1,10.1,0,0,0,4.84-3.7c3.15-4.48,6.26-9.12,9.25-13.78a10.12,10.12,0,0,0-17-10.94c-2.84,4.43-5.8,8.83-8.79,13.09a10.12,10.12,0,0,0,11.72,15.33Z" transform="translate(-456 -454.93)" fill="#91b3fa"/>
    </g>
    <path d="M1258.6,924.51a4.74,4.74,0,0,0-1.52-5.28L1212,883.46a250.7,250.7,0,0,0-4.37-81.12l41-40.4a4.74,4.74,0,0,0,.94-5.41l-29.83-62.27a4.73,4.73,0,0,0-4.81-2.65l-57.14,6.58A250.84,250.84,0,0,0,1097.25,644l.37-57.56a4.71,4.71,0,0,0-3.15-4.49l-65.13-23a4.73,4.73,0,0,0-5.27,1.53L988.3,605.59A250.72,250.72,0,0,0,907.18,610l-40.41-41a4.73,4.73,0,0,0-5.41-.94L799.1,597.9a4.73,4.73,0,0,0-2.66,4.8L803,659.85a250.54,250.54,0,0,0-54.23,60.48L691.24,720a4.73,4.73,0,0,0-4.49,3.16l-22.94,65.12a4.74,4.74,0,0,0,1.52,5.28l45.1,35.77a250.42,250.42,0,0,0,4.36,81.12l-40.94,40.4a4.72,4.72,0,0,0-1,5.41l29.84,62.27a4.72,4.72,0,0,0,4.8,2.65l57.15-6.58a250.54,250.54,0,0,0,60.48,54.23l-.38,57.56a4.7,4.7,0,0,0,3.16,4.49l65.1,22.93a4.72,4.72,0,0,0,5.27-1.52l35.78-45.09a250.65,250.65,0,0,0,81.11-4.36l40.41,40.94a4.74,4.74,0,0,0,5.41.94l62.26-29.83A4.74,4.74,0,0,0,1126,1110l-6.58-57.14a250.94,250.94,0,0,0,54.23-60.48l57.55.38a4.76,4.76,0,0,0,4.5-3.16Z" transform="translate(-456 -454.93)" fill="#91b3fa"/>
    <path d="M975,924.39a69.33,69.33,0,1,1,9.82-2.74A69.33,69.33,0,0,1,975,924.39ZM916.87,827a53.11,53.11,0,1,0,26.19-20.61A53.13,53.13,0,0,0,916.87,827Z" transform="translate(-456 -454.93)" fill="#bdd0fb"/>
    <path d="M1017.42,1016.43a171.94,171.94,0,0,0,16.17-6.77h0q2.52-1.2,5-2.48a170.86,170.86,0,0,0,23.18-14.48l.3-.22.84-.64,1.63-1.24a4,4,0,0,0,1.33-4.57,3.88,3.88,0,0,0-.61-1.11,4,4,0,0,0-5.6-.78l-.08.06A162.72,162.72,0,0,1,813.27,926q-3.63-7.61-6.46-15.43a162.59,162.59,0,0,1,82.82-201.39c80.87-38.74,178.11-4.47,216.83,76.36a162.63,162.63,0,0,1,15.29,85.22,3.87,3.87,0,0,0,.22,1.75,4,4,0,0,0,7.84-1,170.75,170.75,0,0,0-16-89.48c-40.7-84.85-142.81-120.8-227.67-80.16A170.68,170.68,0,0,0,799.19,913.3q3,8.21,6.78,16.2a170.69,170.69,0,0,0,211.45,86.93Z" transform="translate(-456 -454.93)" fill="#bdd0fb"/>
    <g opacity="0.3">
      <path d="M1764,908.77a6.24,6.24,0,0,0,4.11-6.26c-.31-5.29-.8-10.65-1.44-15.92a6.25,6.25,0,0,0-12.46,1h0a4.1,4.1,0,0,0,.06.49c.6,5,1.06,10.13,1.37,15.18a6.25,6.25,0,0,0,6.61,5.86A5.79,5.79,0,0,0,1764,908.77Z" transform="translate(-456 -454.93)" fill="#91b3fa"/>
      <path d="M1756.07,861.44a6.26,6.26,0,0,1-7.58-4.56,261.49,261.49,0,0,0-7.62-25.08c-.63-1.73-1.27-3.46-1.94-5.19a6.26,6.26,0,0,1,3.6-8.07,6.47,6.47,0,0,1,8.08,3.6c.67,1.8,1.33,3.61,2,5.42a271.2,271.2,0,0,1,8,26.31,6.25,6.25,0,0,1-3.94,7.38Zm-30.3-63.7a257.4,257.4,0,0,0-16.59-27,6.25,6.25,0,0,1,10-7.45l.07.1.12.17a271.5,271.5,0,0,1,17.39,28.36,6.25,6.25,0,0,1-2.58,8.45,6,6,0,0,1-.82.36,6.25,6.25,0,0,1-7.63-3Zm-36.4-51.85a255.52,255.52,0,0,0-22.73-22.15,6.25,6.25,0,1,1,8.15-9.48,270.89,270.89,0,0,1,23.84,23.23,6.25,6.25,0,0,1-.43,8.83h0a6.25,6.25,0,0,1-8.83-.43Zm-48-41.32a256.66,256.66,0,0,0-27.45-15.91,6.25,6.25,0,1,1,5.27-11.34l.31.16a268.53,268.53,0,0,1,28.79,16.68,6.25,6.25,0,0,1,1.76,8.65h0a6.37,6.37,0,0,1-3.08,2.41,6.23,6.23,0,0,1-5.62-.67Zm-56.66-28.34a260.25,260.25,0,0,0-30.5-8.77,6.25,6.25,0,0,1,2.72-12.2,273.57,273.57,0,0,1,32,9.18,6.25,6.25,0,0,1-4.18,11.79Zm-61.82-13.73a253.86,253.86,0,0,0-31.68-1.06,6.25,6.25,0,0,1-.36-12.5h0a271,271,0,0,1,33.23,1.11,6.25,6.25,0,1,1-1.19,12.45Zm-63.28,1.8a256.35,256.35,0,0,0-31,6.76,6.25,6.25,0,1,1-4.46-11.68l.29-.1a6.61,6.61,0,0,1,.76-.22,269.41,269.41,0,0,1,32.51-7.08,6.25,6.25,0,0,1,3.07,12,5.6,5.6,0,0,1-1.2.32Zm-97.91,29.08a6.25,6.25,0,0,1,2.3-8.53,276.68,276.68,0,0,1,25.8-13c1.34-.6,2.68-1.17,4-1.74a6.18,6.18,0,0,1,8.13,3.21h0v.13a6.25,6.25,0,0,1-3.33,8.19h0c-1.26.52-2.52,1.07-3.8,1.64a260.5,260.5,0,0,0-24.63,12.44,5.36,5.36,0,0,1-1,.47,6.23,6.23,0,0,1-7.54-2.81Z" transform="translate(-456 -454.93)" fill="#91b3fa"/>
    </g>
    <g opacity="0.3">
      <path d="M1586.54,1174a270.41,270.41,0,0,1-31.5,8.81,6.25,6.25,0,0,1-2.7-12.2h.07a257.64,257.64,0,0,0,30-8.4,6.25,6.25,0,1,1,4.16,11.79h0Zm21.89-15.42a6.24,6.24,0,0,1,2.88-8.34h0a262.13,262.13,0,0,0,27.2-15.32,6.25,6.25,0,0,1,6.78,10.5,273.39,273.39,0,0,1-28.52,16.06,4.78,4.78,0,0,1-.62.26,6.24,6.24,0,0,1-7.73-3.14Zm-85.76,29.14a270.69,270.69,0,0,1-32.72.92,6.25,6.25,0,0,1,.41-12.49,257.84,257.84,0,0,0,31.2-.88,6.25,6.25,0,0,1,2.67,12.1,6,6,0,0,1-1.56.36Zm140.2-62.51a6.25,6.25,0,0,1,.8-8.8,259.68,259.68,0,0,0,22.7-21.43,6.25,6.25,0,0,1,9.38,8.26,3.45,3.45,0,0,1-.26.28,267.6,267.6,0,0,1-23.81,22.48,6.24,6.24,0,0,1-8.81-.78Zm-205.48,60.38a273.22,273.22,0,0,1-32-7,6.25,6.25,0,0,1,2.6-12.23,7.32,7.32,0,0,1,.8.23,258,258,0,0,0,30.49,6.64,6.26,6.26,0,0,1-1.89,12.37Zm-62.87-17.73a274.58,274.58,0,0,1-29.38-14.42,6.25,6.25,0,0,1,5.74-11.1,3.62,3.62,0,0,1,.43.24,262,262,0,0,0,28,13.74,6.25,6.25,0,1,1-4.82,11.54Zm-56.82-32.28a271.63,271.63,0,0,1-25.07-21,6.25,6.25,0,0,1,8.6-9.07,257.28,257.28,0,0,0,23.91,20.07,6.24,6.24,0,0,1,1.31,8.73h0a6,6,0,0,1-2.89,2.16,6.26,6.26,0,0,1-5.85-.89Z" transform="translate(-456 -454.93)" fill="#91b3fa"/>
      <path d="M1713.63,1080.28a6.15,6.15,0,0,0,2.93-2.19c3.15-4.32,6.19-8.76,9-13.18a6.25,6.25,0,1,0-10.52-6.76h0c-2.71,4.22-5.61,8.45-8.61,12.58a6.24,6.24,0,0,0,7.17,9.55Z" transform="translate(-456 -454.93)" fill="#91b3fa"/>
    </g>
    <path d="M1696.72,962.51a3.17,3.17,0,0,0-1-3.53l-30.19-24a167.74,167.74,0,0,0-2.92-54.27l27.4-27a3.17,3.17,0,0,0,.63-3.62l-20-41.67a3.15,3.15,0,0,0-3.22-1.77l-38.24,4.4a168.08,168.08,0,0,0-40.47-36.29l.26-38.51a3.18,3.18,0,0,0-2.12-3l-43.57-15.34a3.17,3.17,0,0,0-3.53,1l-23.94,30.18a167.8,167.8,0,0,0-54.28,2.92l-27-27.4a3.17,3.17,0,0,0-3.62-.63l-41.67,20a3.15,3.15,0,0,0-1.77,3.22l4.4,38.24a167.25,167.25,0,0,0-36.28,40.47l-38.52-.26a3.18,3.18,0,0,0-3,2.12l-15.34,43.57a3.17,3.17,0,0,0,1,3.53l30.17,23.94a167.8,167.8,0,0,0,2.92,54.28l-27.4,27a3.17,3.17,0,0,0-.63,3.62l20,41.66a3.17,3.17,0,0,0,3.22,1.78l38.24-4.41a167.29,167.29,0,0,0,40.47,36.29l-.25,38.52a3.16,3.16,0,0,0,2.11,3l43.58,15.35a3.17,3.17,0,0,0,3.53-1l23.93-30.17a167.8,167.8,0,0,0,54.28-2.92l27,27.4a3.17,3.17,0,0,0,3.62.63l41.67-20a3.15,3.15,0,0,0,1.77-3.22l-4.4-38.24a167.66,167.66,0,0,0,36.29-40.47l38.51.25a3.16,3.16,0,0,0,3-2.11Z" transform="translate(-456 -454.93)" fill="#91b3fa"/>
    <path d="M1507.09,963.25a47,47,0,1,1,6.75-1.88A49.29,49.29,0,0,1,1507.09,963.25Zm-43.45-39.44A34.74,34.74,0,0,0,1504.55,951h.09a34.77,34.77,0,0,0-13.78-68.17,38.21,38.21,0,0,0-4.92,1.38A34.82,34.82,0,0,0,1463.64,923.81Z" transform="translate(-456 -454.93)" fill="#bdd0fb"/>
    <path d="M1536.65,1027.31a118.86,118.86,0,0,0,31.52-17.12l.85-.66a6.25,6.25,0,0,0,2.06-7,6.67,6.67,0,0,0-.95-1.71,6.25,6.25,0,0,0-8.76-1.11,105.56,105.56,0,0,1-19.08,11.75h0l-1.11.53a104.28,104.28,0,0,1-50.62,9.67,105.85,105.85,0,0,1-27.79-5.53l-.22-.07-.68-.24a105.25,105.25,0,1,1,139.75-89.59,6.25,6.25,0,1,0,12.45,1.16,117.45,117.45,0,0,0-6.46-50.69,115.08,115.08,0,0,0-4.61-11,117.72,117.72,0,1,0-66.35,161.61Z" transform="translate(-456 -454.93)" fill="#bdd0fb"/>
    <rect y="493.83" width="2798" height="2071.21" rx="30.51" fill="url(#linear-gradient-2)"/>
    <rect x="61.82" y="558.23" width="2650.62" height="1926.08" rx="102.87" fill="#7d97f4"/>
    <rect x="89.48" y="606.96" width="2595.41" height="1851.72" rx="102.87" fill="#bdd0fb"/>
    <rect x="882.56" y="659.64" width="43.42" height="1637.08" rx="6.44" fill="#fff" opacity="0.59" style="isolation: isolate"/>
    <rect x="1802.91" y="650.81" width="43.42" height="1637.08" rx="6.44" fill="#fff" opacity="0.59" style="isolation: isolate"/>
    <rect x="1928.34" y="925.46" width="717.99" height="407.8" rx="20.78" fill="url(#linear-gradient-3)"/>
    <rect x="1943.84" y="942.78" width="677.4" height="373.16" rx="70.04" fill="#7d97f4"/>
    <rect x="2259.6" y="1037.25" width="328.58" height="37.2" rx="5.52" fill="url(#linear-gradient-4)"/>
    <rect x="2259.6" y="1116.96" width="328.58" height="37.2" rx="5.52" fill="url(#linear-gradient-5)"/>
    <rect x="2259.6" y="1193.42" width="328.58" height="37.2" rx="5.52" fill="url(#linear-gradient-6)"/>
    <rect x="1987.84" y="983.52" width="138.46" height="115.73" rx="7.33" fill="url(#linear-gradient-7)"/>
    <path d="M2472.16,1492.22h0a10.38,10.38,0,0,1,14.19,3.71h0l.11.19,13.33,23.89a3.32,3.32,0,0,0,4.51,1.3h0a3.29,3.29,0,0,0,1.42-1.55l33.06-73.6a3.69,3.69,0,0,1,7.06,1.59c-.34,22.52-6.32,65.31-42.29,101.13,0,0-19.82-7.7-35.79-42.76A10.88,10.88,0,0,1,2472.16,1492.22Z" transform="translate(-456 -454.93)" fill="url(#linear-gradient-8)"/>
    <rect x="1017.69" y="916.43" width="717.99" height="407.8" rx="20.78" fill="url(#linear-gradient-9)"/>
    <rect x="1033.19" y="933.75" width="677.4" height="373.16" rx="70.04" fill="#7d97f4"/>
    <rect x="1348.94" y="1028.22" width="328.58" height="37.2" rx="5.52" fill="url(#linear-gradient-10)"/>
    <rect x="1348.94" y="1107.93" width="328.58" height="37.2" rx="5.52" fill="url(#linear-gradient-11)"/>
    <rect x="1348.94" y="1184.39" width="328.58" height="37.2" rx="5.52" fill="url(#linear-gradient-12)"/>
    <rect x="1077.19" y="974.49" width="138.46" height="115.73" rx="7.33" fill="url(#linear-gradient-13)"/>
    <rect x="1019.78" y="1385.14" width="717.99" height="407.8" rx="20.78" fill="url(#linear-gradient-14)"/>
    <rect x="1035.28" y="1402.46" width="677.4" height="373.16" rx="70.04" fill="#7d97f4"/>
    <rect x="1351.03" y="1496.93" width="328.58" height="37.2" rx="5.52" fill="url(#linear-gradient-15)"/>
    <rect x="1351.03" y="1576.64" width="328.58" height="37.2" rx="5.52" fill="url(#linear-gradient-16)"/>
    <rect x="1351.03" y="1653.1" width="328.58" height="37.2" rx="5.52" fill="url(#linear-gradient-17)"/>
    <rect x="1079.28" y="1443.2" width="138.46" height="115.73" rx="7.33" fill="#fff"/>
    <rect x="106.11" y="892.5" width="717.99" height="407.8" rx="20.78" fill="url(#linear-gradient-18)"/>
    <rect x="121.6" y="909.82" width="677.4" height="373.16" rx="70.04" fill="#7d97f4"/>
    <rect x="437.36" y="1004.29" width="328.58" height="37.2" rx="5.52" fill="url(#linear-gradient-19)"/>
    <rect x="437.36" y="1084" width="328.58" height="37.2" rx="5.52" fill="url(#linear-gradient-20)"/>
    <rect x="437.36" y="1160.47" width="328.58" height="37.2" rx="5.52" fill="url(#linear-gradient-21)"/>
    <rect x="165.61" y="950.56" width="138.46" height="115.73" rx="7.33" fill="url(#linear-gradient-22)"/>
    <rect x="1928.34" y="1397.54" width="717.99" height="407.8" rx="20.78" fill="url(#linear-gradient-23)"/>
    <rect x="1943.84" y="1414.85" width="677.4" height="373.16" rx="70.04" fill="#7d97f4"/>
    <rect x="2259.6" y="1509.33" width="328.58" height="37.2" rx="5.52" fill="url(#linear-gradient-24)"/>
    <rect x="2259.6" y="1589.04" width="328.58" height="37.2" rx="5.52" fill="url(#linear-gradient-25)"/>
    <rect x="2259.6" y="1665.5" width="328.58" height="37.2" rx="5.52" fill="url(#linear-gradient-26)"/>
    <rect x="1987.84" y="1455.59" width="138.46" height="115.73" rx="7.33" fill="url(#linear-gradient-27)"/>
    <path d="M2875.6,2231.36c129.41-17.66,164.8,7.45,164.8,7.45l-57.25,101.91s-127.86,4.23-223.1-61.47c16.15-19.36,27-40.37,33.76-56.64A172.26,172.26,0,0,0,2875.6,2231.36Z" transform="translate(-456 -454.93)" fill="url(#linear-gradient-28)"/>
    <path d="M2662,2051.32a4,4,0,0,1,7.51-1.93l18.46,34.52a36.93,36.93,0,0,1,4.1,21.78l-4.73,20.91a35.61,35.61,0,0,0,8.75,27.92c16.24,18.24,50.54,51.33,97.76,68.09-6.79,16.27-17.61,37.28-33.76,56.64-35-24.11-65.51-57.62-83.75-104.23a17.4,17.4,0,0,1-13.19-16.64Z" transform="translate(-456 -454.93)" fill="url(#linear-gradient-29)"/>
    <path d="M3085.84,3181.4s7.7,15.82,5.39,57.42a6.78,6.78,0,0,1-7.13,6.41h-.36l-73.25-8.26a4.36,4.36,0,0,1-3.84-4.82h0a4.33,4.33,0,0,1,.37-1.32c5.73-12.22,22.2-41.73,53.15-56.16Z" transform="translate(-456 -454.93)" fill="url(#linear-gradient-30)"/>
    <path d="M3092.18,3153.75l-8.06,34.27a6.6,6.6,0,0,1-6.36,5.1,58.08,58.08,0,0,1-15.47-1.89,10.8,10.8,0,0,1-7.64-11.64l3.78-33.54Z" transform="translate(-456 -454.93)" fill="url(#linear-gradient-31)"/>
    <path d="M2905.26,3159.41a102.82,102.82,0,0,1,12.5,52.36,13,13,0,0,1-13.41,12.4l-114.45-2.85a5.48,5.48,0,0,1-2.9-10.05c22-14.66,65.31-42,96.38-52.41Z" transform="translate(-456 -454.93)" fill="url(#linear-gradient-32)"/>
    <path d="M2915.08,3126.45l-10.72,42.76a8.89,8.89,0,0,1-10.72,6.57h-.09a32.37,32.37,0,0,1-9.88-4.63,10.22,10.22,0,0,1-4.12-10.62l11.4-51.87Z" transform="translate(-456 -454.93)" fill="url(#linear-gradient-33)"/>
    <path d="M3144.7,2542.07s27.68,30.55,29.78,63.8-79.78,560.46-79.78,560.46-31.3,1.65-46.06-9.74c0,0,20-345.9,14.66-427,0,0-115,347.67-143,409.68,0,0-30,.26-38.92-6.45,0,0,71.67-459.41,105.57-538.7Z" transform="translate(-456 -454.93)" fill="url(#linear-gradient-34)"/>
    <path d="M3065.83,2718.15a3.11,3.11,0,0,1-1-.19,2.91,2.91,0,0,1-1.69-3.75h0l18.7-48.6a2.93,2.93,0,0,1,1.43-1.57l30.24-14.91a2.92,2.92,0,0,1,2.58,5.24l-29.21,14.4-18.29,47.53A2.94,2.94,0,0,1,3065.83,2718.15Z" transform="translate(-456 -454.93)" fill="#7d97f4"/>
    <path d="M2827,2253.9c51.07-43.93,140.3-56.32,191.54-59.77a46.36,46.36,0,0,1,48.19,35c15.75,63.29,59.39,228.26,68.24,256.77,7.26,23.39,15,46.3,20,60.64a16.43,16.43,0,0,1-10.07,20.9c-44.55,15.61-123.17,30.07-155,35.59a10.64,10.64,0,0,1-12.3-8.67v0a10.77,10.77,0,0,1-.09-3,33.21,33.21,0,0,0-2.79-17.53l-94.79-207.68c-81.85,72.47-146.39,72.66-193.35,49.49A370.17,370.17,0,0,0,2711.4,2341C2785.07,2336.77,2827,2253.9,2827,2253.9Z" transform="translate(-456 -454.93)" fill="url(#linear-gradient-35)"/>
    <path d="M2593.38,2314l15-15.93c39,33.77,73.51,44.63,103,42.94a370.17,370.17,0,0,1-24.82,74.62C2624.7,2385.1,2593.38,2314,2593.38,2314Z" transform="translate(-456 -454.93)" fill="url(#linear-gradient-36)"/>
    <path d="M2602.55,2315.35l-73.84-5.43-63.42-45.43c10.4-5,63.94,13.65,63.94,13.65s58.41-2.21,74-.48c12.91,1.44,9,19.8,7.27,26-.35,1.26-.6,2-.6,2Z" transform="translate(-456 -454.93)" fill="url(#linear-gradient-37)"/>
    <path d="M2959.64,2096.23l28.12,99s-48.05,25.82-83.57,18.84l-9.76-87.29Z" transform="translate(-456 -454.93)" fill="url(#linear-gradient-38)"/>
    <path d="M2895.35,2007.34s-33.85,54.14-40.08,84.28-15.73,48.89,18.5,60.26,66.45-1.72,87-29.6c0,0,32.09-42.9,29.31-62.85S2895.35,2007.34,2895.35,2007.34Z" transform="translate(-456 -454.93)" fill="url(#linear-gradient-39)"/>
    <path d="M2952,2098.72l-1.87-1.19a4.87,4.87,0,0,1-1.57-6.71h0c.06-.1.13-.19.2-.29,6.39-8.84,19.32-29.34,7.61-36.32-15.1-9-76.87-31.5-87.24-56.16-10-23.7,5.92-50,24.71-55.35a2.45,2.45,0,0,1,3,1.51l1,3a2.42,2.42,0,0,0,4.48.21h0a2.4,2.4,0,0,1,4.39,0c3.21,7.4,13,20.06,42.65,30.25,42.16,14.47,68.2,36.3,64.44,66.36a2.41,2.41,0,0,0,2,2.73,2.36,2.36,0,0,0,1.36-.2c3.5-1.48,8.76-1.63,14.74,5.15,10.41,11.79,1.66,37-27.63,54.5a2.41,2.41,0,0,0-.91,3.27,2.46,2.46,0,0,0,.45.57c4.28,3.79,10.24,12.17-9.5,19.21-20.41,7.28-34.41,4.35-39.71,2.64a2.4,2.4,0,0,1-1.54-3v-.12l9.73-25.47a2.42,2.42,0,0,0-1.38-3.12,3.18,3.18,0,0,0-.51-.13Z" transform="translate(-456 -454.93)" fill="url(#linear-gradient-40)"/>
    <path d="M2950.1,2104.11s15.14-35.56,30.17-22.71-14.79,40.16-28.33,39.56Z" transform="translate(-456 -454.93)" fill="url(#linear-gradient-41)"/>
    <path d="M2460.91,2105.25h0a33.09,33.09,0,0,1,45.28,11.82h0c.12.19.23.39.34.59l42.49,76.19a10.62,10.62,0,0,0,19-.82l105.41-234.68c5.26-11.7,22.7-7.75,22.5,5.09-1.07,71.78-20.12,208.22-134.81,322.44,0,0-63.21-24.57-114.11-136.35A34.68,34.68,0,0,1,2460.91,2105.25Z" transform="translate(-456 -454.93)" fill="url(#linear-gradient-42)"/>
    <rect x="106.11" y="628.67" width="717.99" height="163.55" rx="13.32" fill="#fff" opacity="0.59" style="isolation: isolate"/>
    <rect x="1008.82" y="632.04" width="717.99" height="163.55" rx="13.32" fill="#fff" opacity="0.59" style="isolation: isolate"/>
    <rect x="1916.8" y="632.04" width="717.99" height="163.55" rx="13.32" fill="#fff" opacity="0.59" style="isolation: isolate"/>
    <path d="M676.12,3015.39s-148.16-342.26-36-702.84c.74-2.36,4.9-1.91,5.21.57C672.38,2531.2,680.44,2767.39,676.12,3015.39Z" transform="translate(-456 -454.93)" fill="#7d97f4"/>
    <path d="M675.53,3008.19a1.91,1.91,0,0,1-1.83-1.39c-26.28-93.38-36.28-252.05-40-368.72-4.07-126.34-1.9-232-1.88-233.06a1.8,1.8,0,0,1,1.75-1.86h.19a1.9,1.9,0,0,1,1.86,1.92h0c0,1.06-2.18,106.63,1.89,232.88,3.75,116.45,13.71,274.78,39.89,367.79a1.9,1.9,0,0,1-1.31,2.35h0A1.77,1.77,0,0,1,675.53,3008.19Z" transform="translate(-456 -454.93)" fill="#fff" opacity="0.59" style="isolation: isolate"/>
    <path d="M710.05,2959.61s-91.53-420,81.44-844.91a2.66,2.66,0,0,1,5.14,1C787.3,2378.92,755.88,2662.58,710.05,2959.61Z" transform="translate(-456 -454.93)" fill="#7d97f4"/>
    <path d="M711,2950.56a1.9,1.9,0,0,1-1.89-1.73c-20.6-217.3,57.77-718.89,58.57-723.94a1.89,1.89,0,0,1,2.15-1.58h0a1.91,1.91,0,0,1,1.59,2.18c-.8,5-79.1,506.15-58.55,723a1.9,1.9,0,0,1-1.71,2.07Z" transform="translate(-456 -454.93)" fill="#fff" opacity="0.59" style="isolation: isolate"/>
    <path d="M724.57,3073.48s-43.85-366.35,174-696c1.42-2.15,5.39-.83,5,1.65C865.14,2598.4,802.71,2831.45,724.57,3073.48Z" transform="translate(-456 -454.93)" fill="#7d97f4"/>
    <path d="M726.7,3066.34h0a1.91,1.91,0,0,1-1.87-1.94c2-97,39.39-254.51,70.44-369.58,33.64-124.61,67.25-227.66,67.59-228.68a1.9,1.9,0,0,1,3.65,1.06v.12c-.33,1-33.92,104-67.53,228.51-31,114.86-68.36,272.05-70.3,368.64a1.91,1.91,0,0,1-1.95,1.87Z" transform="translate(-456 -454.93)" fill="#fff" opacity="0.59" style="isolation: isolate"/>
    <path d="M613.35,2870.72H814.72c15.07,0,26.35,14.19,23.55,29-12,63.64-36.38,119.86-61.69,166.89A32.52,32.52,0,0,1,748,3083.83H682.3a33.17,33.17,0,0,1-29.07-17.2c-31.59-57.49-47-114.54-59.92-170.36C590.39,2883.41,600.15,2870.72,613.35,2870.72Z" transform="translate(-456 -454.93)" fill="#7d97f4"/>
    <path d="M2291,2974.12s-142.8,157.42-262,90.88c-95.84-53.47,40.32-39.5,155.81-64.76,9.07-2,6.69-15.53-2.5-14.31-90.37,12-228.25,21.77-252.2-25.35-36.15-71.13-1.09-48.06,108.94-37.78s131.23-16.9,59.41-33.82-186.08,20.51-212.7-14.3-41.16-103.89-51.77-133.6,137-74.3,176.86-35.29,72.3,126.07,119.65,142-3.59-61.12-35-100.87-43.85-69.29,18.89-59.81,95.9,86,102.51,143.21,28.72,89.12,27.72,60.85-11.27-115-31.32-141.07S2336.36,2755.82,2291,2974.12Z" transform="translate(-456 -454.93)" fill="#7d97f4"/>
    <path d="M2279.36,2975.62a1.86,1.86,0,0,1-1.9-.34c-122.56-107.21-328.1-185.14-330.17-185.92a1.88,1.88,0,0,1,1.32-3.51c2.07.77,208.25,78.94,331.32,186.61a1.88,1.88,0,0,1,.18,2.65A1.76,1.76,0,0,1,2279.36,2975.62Z" transform="translate(-456 -454.93)" fill="#fff" opacity="0.53" style="isolation: isolate"/>
    <path d="M2377.19,3074.66s-260.76,8.6-304-153.36c-34.74-130.17,69.27,1.81,190.21,82,9.49,6.3,19.4-7.37,10.47-14.43-87.76-69.43-214.19-182.62-193.11-244,31.82-92.64,41.44-42,126.38,63.76s127,101.26,80.57,23.49-177.05-146.54-169.1-199.73,56.42-125,73.55-159.79,182.51,57.29,182.21,125.78-49.38,171.44-22.94,226.76,50.82-55.37,59-117,23.63-97.85,68.87-34.44,6.07,158.06-38.67,212.72-54,101.45-30,76.41,91.75-108.17,97.61-148.12S2608.41,2928.17,2377.19,3074.66Z" transform="translate(-456 -454.93)" fill="url(#linear-gradient-43)"/>
    <path d="M2365.93,3065.7a2.3,2.3,0,0,1-1.32-2c-10.18-199.64-117.08-447.43-118.16-449.91a2.31,2.31,0,0,1,4.23-1.84c1.08,2.49,108.31,251,118.53,451.51a2.3,2.3,0,0,1-2.17,2.42h0A2.34,2.34,0,0,1,2365.93,3065.7Z" transform="translate(-456 -454.93)" fill="#fff" opacity="0.53" style="isolation: isolate"/>
    <rect x="799.16" y="1157.72" width="831.16" height="472.08" rx="20.78" fill="url(#linear-gradient-44)"/>
    <rect x="817.1" y="1177.77" width="784.17" height="431.98" rx="20.78" fill="url(#linear-gradient-45)"/>
    <rect x="1182.62" y="1287.13" width="380.37" height="43.06" rx="5.52" fill="#fff"/>
    <rect x="1182.62" y="1379.41" width="380.37" height="43.06" rx="5.52" fill="#fff"/>
    <rect x="1182.62" y="1467.92" width="380.37" height="43.06" rx="5.52" fill="#fff"/>
    <rect x="868.04" y="1224.93" width="160.28" height="133.97" rx="7.33" fill="#fff"/>
    <path d="M1256.43,1973.88l.76-25.31-26.45-52.51a34.19,34.19,0,0,1-.1-30.57l30-60.5s17.3,131.31,21.85,142.22-12.34,30.52-12.34,30.52Z" transform="translate(-456 -454.93)" fill="url(#linear-gradient-46)"/>
    <path d="M1037.5,1951.72s-28.28,13.75-33.48,29.55c-4.17,12.68-35.44,14.32-38.53,39.25-1.6,12.88-11.12,23.19-23.94,25.15-31.94,4.9-81.16,21.48-89,76.93-6,42.32,15.56,58.37,38.21,63.92,16.63,4.08,27.68,20.26,24.32,37.05-3.23,16.1,1.58,34.72,29.48,49.44,62.52,33,125-78.16,125-78.16l12.79-194.06Z" transform="translate(-456 -454.93)" fill="url(#linear-gradient-47)"/>
    <path d="M1256.43,1973.88s5.71,168.28-142.16,163.35c0,0,45.62,74.44,69.43,78.95,0,0,151.28-52.51,98.75-269Z" transform="translate(-456 -454.93)" fill="url(#linear-gradient-48)"/>
    <path d="M780.51,3168.58l-4,33.26c-4.22,15.8-24.56,55.63-50.68,53-16.07-1.6-18-48.54-15.77-55.59,4.09-12.83,11.55-32.11,22.32-43.45h36.89a11.37,11.37,0,0,1,11.33,11.39A10.81,10.81,0,0,1,780.51,3168.58Z" transform="translate(-456 -454.93)" fill="url(#linear-gradient-49)"/>
    <path d="M1069.49,2779l6.22,36.63s-20.85,211.23-24.56,295.73A66.21,66.21,0,0,0,1061,3149l36.26,58.89-92.16-54.38-1.83-11.25,15.08-20.74-19.76-236.63a72.58,72.58,0,0,1,8.27-40.16l19.06-35.81Z" transform="translate(-456 -454.93)" fill="url(#linear-gradient-50)"/>
    <path d="M1103.28,3216.37h-29.41a17.69,17.69,0,0,1-14-6.89c-9.17-11.91-28.17-35.16-37.25-35.76-12.23-.82-10.66,42.65-10.66,42.65h-6.86l-8.68-54A32,32,0,0,1,1013.2,3129h0s2.79,20.67,18,29.82,61.67,41.88,61.67,41.88a42,42,0,0,1,12,.32C1114,3202.63,1112.71,3216.37,1103.28,3216.37Z" transform="translate(-456 -454.93)" fill="url(#linear-gradient-51)"/>
    <path d="M943.26,2796.37S821.09,3028.11,801.67,3081s-26.22,97.05-26.48,101.23c-.41,6.53-8.53,12.79-30.93,12.79-11.55,0-17.21-4.63-20-9.11a13.06,13.06,0,0,1-.5-12.65c7.07-14.3,29.5-60,37.8-80.73,9.92-24.75,31.25-136.92,43-175.92s24.92-81.3,75.87-120.26C880.4,2796.37,915.37,2762.11,943.26,2796.37Z" transform="translate(-456 -454.93)" fill="url(#linear-gradient-52)"/>
    <path d="M1020.44,2416.65c17.89-75.82-.11-132.94-19-168.15a56.84,56.84,0,0,1,22.87-77.05h0l.93-.49c44.2-23,89-33.73,89-33.73s87.58,64,77.19,114.14c-6.09,29.37-61.56,175.94-61.56,175.94S1078.61,2451.58,1020.44,2416.65Z" transform="translate(-456 -454.93)" fill="url(#linear-gradient-53)"/>
    <path d="M950.57,2482.76c12.82-38.64,69.87-66.11,69.87-66.11,58.17,34.93,109.46,10.66,109.46,10.66s11.5,44,3.56,84.83-57.75,303.46-57.75,303.46c-78.48,15.9-199.19-16-199.19-16C926.51,2710.84,937.74,2521.39,950.57,2482.76Z" transform="translate(-456 -454.93)" fill="url(#linear-gradient-54)"/>
    <path d="M1057,2049l-25.63,115.09c-2.45,10.13,6.79,8.47,17,6.54,16.79-3.16,38.42-9.68,45.65-22.74a12.48,12.48,0,0,0,1.31-4.34l11-79.8a14.35,14.35,0,0,0-8.39-15.07l-21.25-9.42a14.34,14.34,0,0,0-18.89,7.38h0A14,14,0,0,0,1057,2049Z" transform="translate(-456 -454.93)" fill="url(#linear-gradient-55)"/>
    <path d="M1087.08,1939.4s30.34,12.81,51,56.66,5.23,64.1-14.12,66.88-48.3,2.35-78.92-26S1047.63,1924.21,1087.08,1939.4Z" transform="translate(-456 -454.93)" fill="url(#linear-gradient-56)"/>
    <path d="M1065.59,2013.56s-22.89-64.16,34-64.91L1113,1958s20.87-35.57-13.38-52.55-74.34-3-88.92,43.2-17.07,77,7.19,99.11,34.24-3,34.24-3-13.21-20.65-7.83-31.7,17.78,2.28,17.78,2.28Z" transform="translate(-456 -454.93)" fill="url(#linear-gradient-57)"/>
    <path d="M1059.21,2020.7s-11.57-33-27-19.88,12.55,30.52,23.51,36.15Z" transform="translate(-456 -454.93)" fill="url(#linear-gradient-58)"/>
    <path d="M1363.09,2105s-77.54,174.1-325.19,80.18c-16.32-6.19-32.68,11.48-34,28.88l-.73,9.41a41.95,41.95,0,0,0,43.87,45.18c90.44-4.58,220.34,48.29,334.46-105Z" transform="translate(-456 -454.93)" fill="url(#linear-gradient-59)"/>
    <path d="M1381.46,2163.67s13-38.14,16.21-62-8.73-77.34-19-92.38-12,21.83-16.66,39.16,3.22,42.06,3.22,42.06l-4.74,32.41Z" transform="translate(-456 -454.93)" fill="url(#linear-gradient-60)"/>
  </g>
</svg>
