<svg id="Layer_1" data-name="Layer 1" xmlns="http://www.w3.org/2000/svg" viewBox="0 0 1830 1830">
  <g id="Illustration">
    <g id="Task_management" data-name="Task management">
      <circle cx="915" cy="915" r="915" fill="#f2e6dc"/>
      <path d="M2136.38,1600.3H492.67a2.19,2.19,0,0,1-2.21-2.17v0h0V352.23a2.19,2.19,0,0,1,2.18-2.2H2136.38a2.21,2.21,0,0,1,2.21,2.19h0V1598.1a2.22,2.22,0,0,1-2.2,2.2Zm-1641.51-4.41H2134.18V354.44H494.87Z" transform="translate(-335 -335)" fill="#363e44"/>
      <rect x="209.25" y="68.81" width="1540.57" height="1042.82" fill="#fff"/>
      <circle cx="979.48" cy="1181.17" r="30.94" fill="#fff"/>
      <path d="M1487.55,1622.79h-48.66a66.09,66.09,0,0,1-66.08,66.1H1256.26a66.09,66.09,0,0,1-66.1-66.08v0H1141.5l-48.66,258.61V1903h443.37v-21.6Z" transform="translate(-335 -335)" fill="#e6d0be"/>
      <path d="M1536.21,1932.27H1092.84a2.21,2.21,0,1,1-.3-4.41h443.67a2.21,2.21,0,0,1,.3,4.41Z" transform="translate(-335 -335)" fill="#e6d0be"/>
      <rect x="209.24" y="784.05" width="1540.57" height="327.57" fill="#fff" opacity="0.4" style="isolation: isolate"/>
      <path d="M1556.43,1391.24a2.2,2.2,0,0,1-2.21-2.19h0V485.23a2.21,2.21,0,0,1,4.41-.3,1.5,1.5,0,0,1,0,.3V1389a2.19,2.19,0,0,1-2.14,2.24h-.06Z" transform="translate(-335 -335)" fill="#d3bba3"/>
      <path d="M1075.07,1375.06a2.21,2.21,0,0,1-2.21-2.21V469a2.21,2.21,0,0,1,4.41,0v903.81a2.21,2.21,0,0,1-2.17,2.25h0Z" transform="translate(-335 -335)" fill="#d3bba3"/>
      <path d="M2009.43,569h-1393a2.21,2.21,0,0,1-.3-4.41h1393.3a2.21,2.21,0,0,1,0,4.41Z" transform="translate(-335 -335)" fill="#d3bba3"/>
      <rect x="1285.45" y="341.01" width="135.18" height="135.18" fill="#f7f1eb"/>
      <path d="M1767.25,825H1632.07a2.19,2.19,0,0,1-2.2-2.18v0h0V687.64a2.19,2.19,0,0,1,2.18-2.2h135.2a2.19,2.19,0,0,1,2.2,2.18V822.81A2.2,2.2,0,0,1,1767.25,825Zm-133-4.41H1765V689.84H1634.28Z" transform="translate(-335 -335)" fill="#e6d0be"/>
      <rect x="1285.45" y="561.84" width="135.18" height="135.18" fill="#f7f1eb"/>
      <path d="M1767.25,1045.84H1632.07a2.19,2.19,0,0,1-2.2-2.18h0V908.46a2.19,2.19,0,0,1,2.18-2.2h135.2a2.19,2.19,0,0,1,2.2,2.18v135.2a2.19,2.19,0,0,1-2.18,2.2h0Zm-133-4.41H1765V910.67H1634.28Z" transform="translate(-335 -335)" fill="#e6d0be"/>
      <rect x="1285.45" y="782.66" width="135.18" height="135.18" fill="#f7f1eb"/>
      <path d="M1767.25,1266.67H1632.07a2.19,2.19,0,0,1-2.2-2.18v0h0V1129.29a2.2,2.2,0,0,1,2.19-2.21h135.19a2.22,2.22,0,0,1,2.2,2.2h0v135.17a2.2,2.2,0,0,1-2.19,2.21Zm-133-4.41H1765V1131.49H1634.28Z" transform="translate(-335 -335)" fill="#e6d0be"/>
      <polygon points="1347.73 452.72 1289.99 390.54 1306.64 375.09 1345.09 416.5 1391.07 349.74 1409.77 362.62 1347.73 452.72" fill="#d87355"/>
      <polygon points="1347.73 685.16 1289.99 622.99 1306.64 607.53 1345.09 648.95 1391.07 582.18 1409.77 595.07 1347.73 685.16" fill="#d87355"/>
      <path d="M1917.31,722.93H1791.6a2.21,2.21,0,1,1-.3-4.41h126a2.21,2.21,0,0,1,0,4.41Z" transform="translate(-335 -335)" fill="#e6d0be"/>
      <path d="M1905.69,757.8H1791.6a2.21,2.21,0,1,1-.3-4.41h114.39a2.21,2.21,0,0,1,0,4.41Z" transform="translate(-335 -335)" fill="#e6d0be"/>
      <path d="M1932.27,792.67H1791.6a2.21,2.21,0,1,1-.3-4.41h141a2.21,2.21,0,0,1,.3,4.41Z" transform="translate(-335 -335)" fill="#e6d0be"/>
      <path d="M1917.31,1164.58H1791.6a2.21,2.21,0,1,1-.3-4.41h126a2.21,2.21,0,0,1,0,4.41Z" transform="translate(-335 -335)" fill="#e6d0be"/>
      <path d="M1905.69,1199.45H1791.6a2.21,2.21,0,1,1-.3-4.41h114.39a2.21,2.21,0,0,1,0,4.41Z" transform="translate(-335 -335)" fill="#e6d0be"/>
      <path d="M1952.17,1234.31H1791.6a2.2,2.2,0,1,1,0-4.4h160.57a2.2,2.2,0,1,1,0,4.4Z" transform="translate(-335 -335)" fill="#e6d0be"/>
      <path d="M1987,943.76H1791.6a2.21,2.21,0,1,1-.3-4.41H1987a2.21,2.21,0,0,1,.3,4.41Z" transform="translate(-335 -335)" fill="#e6d0be"/>
      <path d="M1905.69,978.62H1791.6a2.21,2.21,0,1,1-.3-4.41h114.39a2.21,2.21,0,0,1,0,4.41Z" transform="translate(-335 -335)" fill="#e6d0be"/>
      <path d="M1847.57,1013.49h-56a2.21,2.21,0,1,1-.3-4.41h56.3a2.21,2.21,0,0,1,.3,4.41Z" transform="translate(-335 -335)" fill="#e6d0be"/>
      <path d="M776.67,490.64H760.31v44.51h-11V490.64H733.16v-8.91h43.51Z" transform="translate(-335 -335)" fill="#e6d0be"/>
      <path d="M825.79,509.65A32.28,32.28,0,0,1,823,523.48a21,21,0,0,1-8,9.17,23.59,23.59,0,0,1-23.76,0,21.27,21.27,0,0,1-8.07-9.12,31.3,31.3,0,0,1-2.9-13.63v-2.6a32,32,0,0,1,2.85-13.89,21.25,21.25,0,0,1,8-9.2,23.55,23.55,0,0,1,23.74,0,21.25,21.25,0,0,1,8,9.2,31.94,31.94,0,0,1,2.84,13.85Zm-11.15-2.42q0-8.4-3-12.77a10.63,10.63,0,0,0-14.84-2.34,10.76,10.76,0,0,0-2.29,2.28q-3,4.32-3,12.64v2.61q0,8.18,3,12.69A10.53,10.53,0,0,0,809.18,525h0a10.39,10.39,0,0,0,2.5-2.45q3-4.35,3-12.68Z" transform="translate(-335 -335)" fill="#e6d0be"/>
      <path d="M852.5,535.15V481.73h16.44a25,25,0,0,1,12.6,3.17,22.12,22.12,0,0,1,8.68,9,27.85,27.85,0,0,1,3.12,13.3v2.45a27.87,27.87,0,0,1-3.07,13.25,22,22,0,0,1-8.64,9,25.19,25.19,0,0,1-12.58,3.23Zm11-44.51v35.67h5.32q6.45,0,9.87-4.23T882.18,510v-2.82q0-8.15-3.37-12.34t-9.87-4.21Z" transform="translate(-335 -335)" fill="#e6d0be"/>
      <path d="M945.21,509.65a32.28,32.28,0,0,1-2.79,13.83,20.93,20.93,0,0,1-8,9.17,23.59,23.59,0,0,1-23.76,0,21.27,21.27,0,0,1-8.07-9.12,31.3,31.3,0,0,1-2.9-13.63v-2.6a32.12,32.12,0,0,1,2.84-13.89,21.25,21.25,0,0,1,8-9.2,23.53,23.53,0,0,1,23.73,0,21.25,21.25,0,0,1,8,9.2,32.23,32.23,0,0,1,2.84,13.85Zm-11.15-2.42q0-8.4-3-12.77a10.63,10.63,0,0,0-14.84-2.34,10.76,10.76,0,0,0-2.29,2.28q-3,4.32-3,12.64v2.61q0,8.18,3,12.69A10.53,10.53,0,0,0,928.6,525h0a10.39,10.39,0,0,0,2.5-2.45q3-4.35,3-12.68Z" transform="translate(-335 -335)" fill="#e6d0be"/>
      <path d="M1195.81,535.15V481.73h16.44a25,25,0,0,1,12.6,3.17,22.12,22.12,0,0,1,8.68,9,27.85,27.85,0,0,1,3.12,13.3v2.45a27.87,27.87,0,0,1-3.07,13.25,22,22,0,0,1-8.64,9,25.19,25.19,0,0,1-12.58,3.23Zm11-44.51v35.67h5.32q6.45,0,9.87-4.23t3.48-12.07v-2.82q0-8.15-3.37-12.34t-9.87-4.21Z" transform="translate(-335 -335)" fill="#e6d0be"/>
      <path d="M1288.52,509.65a32.28,32.28,0,0,1-2.79,13.83,20.93,20.93,0,0,1-8,9.17,23.59,23.59,0,0,1-23.76,0,21.27,21.27,0,0,1-8.07-9.12,31.3,31.3,0,0,1-2.9-13.63v-2.6a32.12,32.12,0,0,1,2.84-13.89,21.25,21.25,0,0,1,8-9.2,23.53,23.53,0,0,1,23.73,0,21.25,21.25,0,0,1,8,9.2,32.23,32.23,0,0,1,2.84,13.85Zm-11.15-2.42q0-8.4-3-12.77a10.63,10.63,0,0,0-14.84-2.34,10.76,10.76,0,0,0-2.29,2.28q-3,4.32-3,12.64v2.61q0,8.18,3,12.69a10.54,10.54,0,0,0,14.67,2.62,10.39,10.39,0,0,0,2.5-2.45q3-4.35,3-12.68Z" transform="translate(-335 -335)" fill="#e6d0be"/>
      <path d="M1308.22,535.15h-11V481.73h11Z" transform="translate(-335 -335)" fill="#e6d0be"/>
      <path d="M1361.86,535.15h-11L1329.43,500v35.15h-11V481.73h11L1350.89,517V481.73h11Z" transform="translate(-335 -335)" fill="#e6d0be"/>
      <path d="M1413.74,528.4a19.25,19.25,0,0,1-8.41,5.52,35,35,0,0,1-12,2,23.8,23.8,0,0,1-12.16-3,20,20,0,0,1-8.07-8.78,30.73,30.73,0,0,1-2.92-13.54v-3.7a32.8,32.8,0,0,1,2.7-13.85,20.05,20.05,0,0,1,7.77-8.95,22.34,22.34,0,0,1,11.91-3.1q9.5,0,14.86,4.53t6.35,13.19H1403c-.49-3.06-1.58-5.3-3.25-6.72a10.31,10.31,0,0,0-6.91-2.13,9.8,9.8,0,0,0-8.55,4.22q-2.93,4.23-3,12.55v3.41q0,8.4,3.19,12.7t9.36,4.29c4.13,0,7.07-.88,8.84-2.64v-9.21h-10v-8.11h21Z" transform="translate(-335 -335)" fill="#e6d0be"/>
      <path d="M1692.81,535.15V481.73h16.43a25,25,0,0,1,12.61,3.17,22.23,22.23,0,0,1,8.67,9,27.85,27.85,0,0,1,3.12,13.3v2.45a28.1,28.1,0,0,1-3.06,13.25,22,22,0,0,1-8.64,9,25.19,25.19,0,0,1-12.58,3.23Zm11-44.51v35.67h5.31q6.47,0,9.87-4.23t3.49-12.07v-2.82q0-8.15-3.38-12.34t-9.87-4.21Z" transform="translate(-335 -335)" fill="#e6d0be"/>
      <path d="M1785.52,509.65a32.28,32.28,0,0,1-2.79,13.83,21,21,0,0,1-8,9.17,23.57,23.57,0,0,1-23.75,0,21.12,21.12,0,0,1-8.08-9.12,31.44,31.44,0,0,1-2.9-13.63v-2.6a32.12,32.12,0,0,1,2.84-13.89,21.25,21.25,0,0,1,8-9.2,23.55,23.55,0,0,1,23.74,0,21.25,21.25,0,0,1,8,9.2,32.1,32.1,0,0,1,2.85,13.85Zm-11.15-2.42q0-8.4-3-12.77a10.63,10.63,0,0,0-14.84-2.34h0a10.27,10.27,0,0,0-2.29,2.27q-3,4.32-3,12.64v2.61q0,8.18,3,12.69A10.53,10.53,0,0,0,1768.9,525h0a10.39,10.39,0,0,0,2.5-2.45q3-4.35,3-12.68Z" transform="translate(-335 -335)" fill="#e6d0be"/>
      <path d="M1837,535.15h-11L1804.52,500v35.15h-11V481.73h11L1826,517V481.73h11Z" transform="translate(-335 -335)" fill="#e6d0be"/>
      <path d="M1878.7,512h-21.13v14.31h24.8v8.84h-35.8V481.73h35.73v8.91h-24.73v12.73h21.13Z" transform="translate(-335 -335)" fill="#e6d0be"/>
      <polygon points="301.82 1727.61 168.2 1722.01 198.13 1550.52 331.29 1576.49 301.82 1727.61" fill="#84524d"/>
      <path d="M819.67,2147.74H478l31.46-130.6H645.65l94.46,29.53c47.43,12.84,80,54.21,79.56,101.07Z" transform="translate(-335 -335)" fill="#f7f1eb"/>
      <polygon points="675.56 1709.61 546.09 1743.11 524.86 1570.32 659.81 1556.45 675.56 1709.61" fill="#84524d"/>
      <path d="M1183.65,2147.74H842l31.46-130.6h136.16l94.46,29.53c47.43,12.84,80,54.21,79.55,101.07Z" transform="translate(-335 -335)" fill="#fff"/>
      <path d="M941.28,1212.49s86.57,380,79.6,750.45h-183L763.51,1511.5s-11.85,257.93-69.25,451.44H489.6s74.41-641,132.54-766.59Z" transform="translate(-335 -335)" fill="#363e44"/>
      <path d="M1003.31,1017.8s199.8-59.67,222.52-83.1a60.16,60.16,0,0,1,13.32-10.78c25-14.71,45.41-.64,78.81-4.09,37.9-3.91,57-27.58,64-20.82,4.87,4.7.17,15.66-16.78,32.7h0c14.37-11.47,34.53-26.16,40.84-18.21,6.8,9.58-14.86,29.63-28.55,41.12,16.57-13.91,29.55-16.34,32-11,3.8,8.36-6.54,22.14-29.16,39.67h0c19-7.74,24.77-6.78,25.75-1.57,1.81,9.53-18,26.19-36.56,36.06-20.92,11.12-61.93,17.78-73.65,22.66-24.17,10-222.1,115.9-262.19,121.54C986.93,1168.53,1003.31,1017.8,1003.31,1017.8Z" transform="translate(-335 -335)" fill="#84524d"/>
      <path d="M1283.5,931.7c24.1-29,26.65-44.55,21.94-48.23-7.93-6.18-35.27,9.65-75.83,47.58C1245.56,932.53,1267.54,930.23,1283.5,931.7Z" transform="translate(-335 -335)" fill="#84524d"/>
      <path d="M1252.48,923.77a2.2,2.2,0,0,1-.26-4.39c1.93-.23,4-.5,6.26-.78,12.08-1.54,27.1-3.45,39.27-2.49a2.21,2.21,0,0,1-.35,4.4c-11.71-.92-27.11,1-38.36,2.46-2.25.29-4.36.56-6.3.79Z" transform="translate(-335 -335)" fill="#363e44"/>
      <path d="M1005.28,1161.74c-74.87-28.8-142.11-192.46-142.11-192.46l143.14-43.16,112.9,197.38S1038.86,1174.65,1005.28,1161.74Z" transform="translate(-335 -335)" fill="#84524d"/>
      <path d="M1253.81,1009.44a2.15,2.15,0,0,1-.83-.16,2.2,2.2,0,0,1-1.21-2.87h0a42.89,42.89,0,0,1,46.57-26.15,2.2,2.2,0,1,1-.7,4.35,38.5,38.5,0,0,0-41.79,23.46A2.17,2.17,0,0,1,1253.81,1009.44Z" transform="translate(-335 -335)" fill="#363e44"/>
      <path d="M1327.8,948.48a2.21,2.21,0,0,1-.31-4.39,72.22,72.22,0,0,0,30.26-11.72,2.2,2.2,0,0,1,2.47,3.65,76.46,76.46,0,0,1-32.1,12.43Z" transform="translate(-335 -335)" fill="#363e44"/>
      <path d="M1342.17,969.51a2.21,2.21,0,0,1-.31-4.39,72.18,72.18,0,0,0,30.25-11.72,2.21,2.21,0,1,1,2.48,3.66h0a77.14,77.14,0,0,1-32.11,12.43Z" transform="translate(-335 -335)" fill="#363e44"/>
      <path d="M1343.39,1000.47a2.21,2.21,0,0,1-.32-4.39,72.15,72.15,0,0,0,30.28-11.71,2.2,2.2,0,0,1,2.47,3.65,76.58,76.58,0,0,1-18.33,9.13,77.56,77.56,0,0,1-13.77,3.3A1.83,1.83,0,0,1,1343.39,1000.47Z" transform="translate(-335 -335)" fill="#363e44"/>
      <polygon points="128.4 760.75 326.51 684.44 222.81 561.41 46.1 665.7 128.4 760.75" fill="#84524d"/>
      <path d="M534.26,901.32c41.57-22.46,161.73-79.86,250.9-80.68,92.09-.84,169.48,11.44,261.45,102.38-20.61,19.63-59.93,60-100.27,101.2l25.08,260.08-385.14.25,24.79-209.66-37.29,13.85Z" transform="translate(-335 -335)" fill="#8b865c"/>
      <path d="M946.59,1026.06h0a2.2,2.2,0,0,1-2.19-2.21h0c.08-16.35.22-24.58.39-35,.08-5,.17-10.38.26-17.35a2.21,2.21,0,0,1,2.21-2.18h0a2.2,2.2,0,0,1,2.17,2.23h0c-.09,7-.18,12.39-.26,17.36-.17,10.42-.31,18.64-.39,35A2.21,2.21,0,0,1,946.59,1026.06Z" transform="translate(-335 -335)" fill="#fff"/>
      <path d="M608,1077.69a2.2,2.2,0,0,1-.76-4.27c15.36-5.6,23.13-8.33,33-11.78,4.7-1.65,9.81-3.44,16.38-5.77a2.2,2.2,0,0,1,1.48,4.15c-6.58,2.34-11.7,4.13-16.39,5.78-9.83,3.45-17.59,6.17-32.91,11.76A2.2,2.2,0,0,1,608,1077.69Z" transform="translate(-335 -335)" fill="#fff"/>
      <polygon points="958.04 341.56 841.3 480.09 791.84 413.64 958.04 341.56" fill="#f7f1eb"/>
      <polygon points="888.69 371.41 958.36 341.19 909.42 399.26 888.69 371.41" fill="#d87355"/>
      <path d="M346.19,1381.35h0a41.42,41.42,0,0,0,57.95,8.54h.05l772.11-574.8-49.46-66.45L354.69,1323.4A41.42,41.42,0,0,0,346.19,1381.35Z" transform="translate(-335 -335)" fill="#efbc73"/>
      <path d="M482.46,1296.86a2.2,2.2,0,0,1-1.32-4l676.44-503.52a2.21,2.21,0,1,1,3,3.29l-.08.07-.24.18L483.78,1296.42A2.16,2.16,0,0,1,482.46,1296.86Z" transform="translate(-335 -335)" fill="#363e44"/>
      <path d="M461.2,1268.3a2.2,2.2,0,0,1-1.31-4l676.44-503.51a2.2,2.2,0,0,1,2.63,3.53h0L462.52,1267.86A2.16,2.16,0,0,1,461.2,1268.3Z" transform="translate(-335 -335)" fill="#363e44"/>
      <path d="M500.14,1320.61a2.19,2.19,0,0,1-1.77-.89l-49.47-66.46a2.21,2.21,0,0,1,3.54-2.63l49.46,66.46a2.21,2.21,0,0,1-.43,3.07h0A2.2,2.2,0,0,1,500.14,1320.61Z" transform="translate(-335 -335)" fill="#363e44"/>
      <path d="M459.89,1350.56a2.21,2.21,0,0,1-1.77-.89l-49.46-66.45a2.2,2.2,0,1,1,3.53-2.63h0L461.66,1347a2.22,2.22,0,0,1-.47,3.09,2.18,2.18,0,0,1-1.3.43Z" transform="translate(-335 -335)" fill="#363e44"/>
      <path d="M404.26,991.5s241.88,2.52,273.37,5.65a57.82,57.82,0,0,1,16.21,3.62c26.27,10.15,27.85,34.09,50.61,57.38,25.82,26.42,55.32,26.67,54.41,36.06-.64,6.54-11.79,9.57-35,7h0c17.37,4,40.68,10.44,38.44,20-3.17,10.93-31.45,6.58-48.43,3.1,20.55,4.21,30.22,12.59,27.64,17.63-4.06,7.92-20.75,8.37-47.7,1.76h0c17.33,9.76,20.08,14.71,16.72,18.6-6.15,7.12-28.2,1.27-46.9-6.89-21-9.19-34.19-23.62-42.26-32.91l-7.87-9.57c-84.59,2.79-151.3,19.75-238.5,16C326.84,1125.05,322.41,1011.18,404.26,991.5Z" transform="translate(-335 -335)" fill="#84524d"/>
      <path d="M466,993.94a2.21,2.21,0,0,1,0-4.41c.9,0,90-.51,101.19-.38a2.21,2.21,0,0,1,2.18,2.23,2.15,2.15,0,0,1-2.12,2.18h-.11c-11.15-.14-100.21.38-101.11.38Z" transform="translate(-335 -335)" fill="#363e44"/>
      <path d="M712.42,1037.44c31.71-1.08,61.67-22.77,56.89-36.65-3.17-9.22-52.93,2.14-84.95-2.7C697,1007.07,699.75,1028.46,712.42,1037.44Z" transform="translate(-335 -335)" fill="#84524d"/>
      <path d="M763.51,1102.4a2.11,2.11,0,0,1-.66-.1A74.53,74.53,0,0,1,734,1085.4a2.21,2.21,0,1,1,2.65-3.54h0a2.73,2.73,0,0,1,.35.33,69.8,69.8,0,0,0,27.11,15.9,2.21,2.21,0,0,1-.67,4.31Z" transform="translate(-335 -335)" fill="#363e44"/>
      <path d="M756.2,1126a2.11,2.11,0,0,1-.66-.1,74.5,74.5,0,0,1-28.81-16.9,2.21,2.21,0,0,1,3-3.21,69.8,69.8,0,0,0,27.11,15.9,2.21,2.21,0,0,1-.67,4.31Z" transform="translate(-335 -335)" fill="#363e44"/>
      <path d="M733.43,1145.58a2.45,2.45,0,0,1-.66-.1,74.54,74.54,0,0,1-28.82-16.9,2.21,2.21,0,0,1,3-3.21,70.2,70.2,0,0,0,27.11,15.9,2.21,2.21,0,0,1-.66,4.31Z" transform="translate(-335 -335)" fill="#363e44"/>
      <path d="M785.71,864.63h0a36.47,36.47,0,0,0,38.8-33.79l5.73-80.49a36.47,36.47,0,0,0-33.75-39h0a36.47,36.47,0,0,0-39,33.73h0l-5.76,80.49a36.47,36.47,0,0,0,33.75,39Z" transform="translate(-335 -335)" fill="#84524d"/>
      <path d="M758.13,655.94c2.53-1.52,27-15.73,50.7-5.59,17.6,7.55,26.89,23.55,38.41,52.76,13.57,34.39,16.88,56.84,10.41,68C847.44,788.67,791,787,760.1,766c-22.31-15.14-33.75-42.85-30.6-69.81S756.51,656.92,758.13,655.94Z" transform="translate(-335 -335)" fill="#84524d"/>
      <path d="M821.5,785.34a128.38,128.38,0,0,1-43.34-7.75,2.21,2.21,0,0,1,1.53-4.14,122.51,122.51,0,0,0,47.07,7.34,2.21,2.21,0,0,1,.23,4.41C825.18,785.29,823.35,785.34,821.5,785.34Z" transform="translate(-335 -335)" fill="#363e44"/>
      <path d="M782.23,714.65a45.18,45.18,0,0,0,17.54,9.46,32,32,0,0,0,6.81,1c13.66.53,14.39-18.53.74-19.06a32.93,32.93,0,0,0-9.63,1.11c-.6.15-1.18.32-1.75.49s-1.22.4-1.81.61A45.71,45.71,0,0,0,782.23,714.65Z" transform="translate(-335 -335)" fill="#fff"/>
      <path d="M831.67,716.57s-10.7-10-24.35-10.49a33.48,33.48,0,0,0-9.66,1.11,17.81,17.81,0,0,0,1.22,15.5,13.25,13.25,0,0,0,.92,1.42,32.37,32.37,0,0,0,6.78,1C820.23,725.67,831.67,716.57,831.67,716.57Z" transform="translate(-335 -335)" fill="#363e44"/>
      <path d="M850.62,728.24a2.48,2.48,0,0,1-.54-.06,2.21,2.21,0,0,1-1.61-2.67c.47-1.88.46-3.32,0-3.85-.19-.21-.55-.3-1.46-.47a15.51,15.51,0,0,1-3.21-.92,13.61,13.61,0,0,1-5.8-4.9,2.21,2.21,0,0,1,3.62-2.52,9.2,9.2,0,0,0,3.92,3.36,10.39,10.39,0,0,0,2.32.65,6.3,6.3,0,0,1,3.86,1.82c1.6,1.75,1.94,4.33,1,7.89A2.2,2.2,0,0,1,850.62,728.24Z" transform="translate(-335 -335)" fill="#363e44"/>
      <path d="M839,759.63a2.1,2.1,0,0,1-.61-.09,14.92,14.92,0,0,1-8-5.45c-2.11-2.93-3.3-7.09-2.81-9.9a4.34,4.34,0,0,1,1.74-3c1.88-1.29,3.8-.22,5.34.65a10.44,10.44,0,0,0,5.54,1.73,14.42,14.42,0,0,0,6.16-1.67,2.21,2.21,0,0,1,2.06,3.9,18.75,18.75,0,0,1-8.06,2.17,14.22,14.22,0,0,1-7.86-2.28l-.63-.35a11.07,11.07,0,0,0,2.1,6.15,10.49,10.49,0,0,0,5.62,3.81,2.2,2.2,0,0,1-.62,4.32Z" transform="translate(-335 -335)" fill="#363e44"/>
      <ellipse cx="752.44" cy="741.54" rx="19.61" ry="22.55" transform="translate(-604.47 674.4) rotate(-59.27)" fill="#84524d"/>
      <path d="M756.37,764.1a2.2,2.2,0,1,1-.13-4.4c6-.34,10.94-3.18,13.68-7.79a2.21,2.21,0,1,1,4.11,1.63,2.58,2.58,0,0,1-.19.37,1.59,1.59,0,0,1-.13.22c-3.5,5.89-9.78,9.51-17.22,9.93Z" transform="translate(-335 -335)" fill="#363e44"/>
      <path d="M734,730.73a2.21,2.21,0,0,1-2.2-2.22h0a2.18,2.18,0,0,1,.43-1.3c6.78-9.12,20.24-11,31.31-4.44a2.2,2.2,0,0,1-2.25,3.79c-9-5.34-20.19-3.9-25.52,3.28A2.21,2.21,0,0,1,734,730.73Z" transform="translate(-335 -335)" fill="#363e44"/>
      <path d="M746.29,750.69a2.22,2.22,0,0,1-1.12-.31c-5.88-3.49-8.13-10.61-5-15.86a10.82,10.82,0,0,1,9.47-5.1h0a2.21,2.21,0,0,1,0,4.41h0a6.46,6.46,0,0,0-5.68,2.95c-1.88,3.16-.32,7.56,3.47,9.81a2.2,2.2,0,0,1-1.13,4.1Z" transform="translate(-335 -335)" fill="#363e44"/>
      <path d="M757.68,696.89c27.49-28.73,60.86-29.78,70.51-31.21,5.35-12.9,2.88-21.39,1.75-24.42-6.45-17.33-33.47-30-64.82-22.94,2.45.29,14.13,5.06,15.79,8.46-11.36-5.63-20.85-4.41-25.65-3.84-22,2.6-40.93,22.76-47.11,52.17.84-1.74,5.85-9.16,11.43-11.61A62.65,62.65,0,0,0,711,676.85c-10.88,23-4.24,46.3-1.48,54.44C713.12,725.34,727.78,701.56,757.68,696.89Z" transform="translate(-335 -335)" fill="#363e44"/>
      <path d="M797.19,670.58a2.1,2.1,0,0,1-.61-.09,105.4,105.4,0,0,0-38.09-3.88,2.21,2.21,0,0,1-.35-4.4,109.11,109.11,0,0,1,34.5,2.68,29.17,29.17,0,0,0-23.28-12.55,2.2,2.2,0,0,1-2.14-2.26h0a2.27,2.27,0,0,1,2.26-2.14,33.63,33.63,0,0,1,29.69,19.51,2.2,2.2,0,0,1-1,2.93,2.14,2.14,0,0,1-1,.21Z" transform="translate(-335 -335)" fill="#363e44"/>
      <path d="M2029.26,1722.29c-27.62,132-38,240.43-23.1,242.15s49.31-103.91,76.94-235.92,23.1-242.15,23.1-242.15S2056.89,1590.28,2029.26,1722.29Z" transform="translate(-335 -335)" fill="#8b865c"/>
      <path d="M1984,1724.63c-23.13,132.5-25.41,241.49-5.11,243.45s55.5-103.86,78.62-236.35,5.11-243.45,5.11-243.45S2007.1,1592.14,1984,1724.63Z" transform="translate(-335 -335)" fill="#776e42"/>
      <path d="M1775.82,1791.2c24.74,132.33,56.87,238.36,71.78,236.82s6.92-110.06-17.82-242.39S1758,1548.81,1758,1548.81,1751.08,1658.87,1775.82,1791.2Z" transform="translate(-335 -335)" fill="#8b865c"/>
      <path d="M1811.09,1746.86c14.91,123.54,37.9,223,51.35,222.06s12.27-101.77-2.64-225.3-51.34-222.06-51.34-222.06S1796.19,1623.33,1811.09,1746.86Z" transform="translate(-335 -335)" fill="#776e42"/>
      <path d="M1845.71,1770.06c-2.9,146.67,7,265.7,22,265.87s29.58-118.61,32.47-265.27-22-265.86-22-265.86S1848.6,1623.4,1845.71,1770.06Z" transform="translate(-335 -335)" fill="#8b865c"/>
      <path d="M1925.74,1913.7c23.4,132.46,54.47,238.66,69.39,237.21s8-110-15.37-242.49-69.39-237.21-69.39-237.21S1902.33,1781.23,1925.74,1913.7Z" transform="translate(-335 -335)" fill="#8b865c"/>
      <path d="M1882.07,1761.51c-6.64,114.29,6,207.53,28.36,208.25s45.77-91.36,52.41-205.66-28.35-208.25-28.35-208.25S1888.72,1647.21,1882.07,1761.51Z" transform="translate(-335 -335)" fill="#776e42"/>
      <path d="M1946.9,1790.44c-22,132.6-27.67,241.21-12.74,242.57S1979,1928,2001,1795.39s12.73-242.57,12.73-242.57S1968.86,1657.84,1946.9,1790.44Z" transform="translate(-335 -335)" fill="#8b865c"/>
      <polygon points="1486.02 1819.09 1689.99 1819.09 1730.26 1582.81 1445.75 1582.81 1486.02 1819.09" fill="#efbc73"/>
    </g>
  </g>
</svg>
